<?xml version="1.0" encoding="UTF-8"?>
<!DOCTYPE svg PUBLIC "-//W3C//DTD SVG 1.1//EN" "http://www.w3.org/Graphics/SVG/1.1/DTD/svg11.dtd">
<!-- Creator: CorelDRAW -->
<svg xmlns="http://www.w3.org/2000/svg" xml:space="preserve" width="6.33333in" height="5.00333in" style="shape-rendering:geometricPrecision; text-rendering:geometricPrecision; image-rendering:optimizeQuality; fill-rule:evenodd; clip-rule:evenodd"
viewBox="0 0 6.33333 5.00333"
 xmlns:xlink="http://www.w3.org/1999/xlink">
 <defs>
  <style type="text/css">
   <![CDATA[
    .fil0 {fill:white}
    .fil1 {fill:#0093DD;fill-rule:nonzero}
    .fil2 {fill:#09458D;fill-rule:nonzero}
    .fil3 {fill:#77C1CD;fill-rule:nonzero}
   ]]>
  </style>
   <clipPath id="id0" style="clip-rule:nonzero">
    <path d="M1.25959 2.60735m0.567583 -0.271402c0.00557874,-0.00647638 0.0120512,-0.00982283 0.0189685,-0.00982283 0.000893701,0 0.00379528,0.000448819 0.00870472,0.00111811 0.00513386,0.000669291 0.00982283,0.00401575 0.014063,0.0100433 0.00223228,0.00312205 0.00334646,0.00602362 0.00334646,0.00914961 0,0.00446457 -0.00156299,0.00870472 -0.00446457,0.0131693 -0.0546811,0.0653937 -0.122307,0.111819 -0.203551,0.139272 -0.00379528,0.00133858 -0.00781102,0.00267717 -0.0116063,0.00446457l-0.00133858 0c0.00267717,0.0113819 0.00424016,0.0223189 0.00513386,0.032811 0.000444882,0.00602362 0.000669291,0.0122756 0.000669291,0.0189685 0,0.0299094 -0.00468898,0.0624961 -0.014063,0.097315 -0.00937402,0.034815 -0.0261102,0.0658425 -0.0506614,0.0928465 -0.023437,0.0236575 -0.0537913,0.0412913 -0.0908425,0.0528976 -0.029685,0.00914961 -0.058252,0.0138386 -0.0857047,0.0138386 -0.00647244,0 -0.0127244,-0.000224409 -0.0189724,-0.000669291 -0.0301299,-0.00312598 -0.0551299,-0.0142874 -0.0752165,-0.0339252 -0.0191929,-0.0183031 -0.0287913,-0.042185 -0.0287913,-0.0714252l0 -0.00379134c0.00312598,-0.0323622 0.0158465,-0.0607087 0.0379409,-0.0850394 0.0223228,-0.0243268 0.0464252,-0.0446378 0.0727638,-0.0609291 0.0540118,-0.0316929 0.112043,-0.0569173 0.174535,-0.0756654 0.00290157,-0.000889764 0.00602756,-0.00200787 0.00915354,-0.00334646 -0.00580315,-0.0191929 -0.0147323,-0.0370512 -0.0267835,-0.0535669 -0.0200906,-0.0249961 -0.0435236,-0.0419606 -0.0700827,-0.0511102 -0.0169646,0.00825591 -0.034374,0.0125 -0.0522283,0.0125l-0.00267717 0c-0.021874,-0.00223228 -0.0357126,-0.0118307 -0.0417402,-0.0287953 -0.00223228,-0.00602362 -0.00334646,-0.0120512 -0.00334646,-0.0176299 0,-0.0113819 0.00401575,-0.0225433 0.0118307,-0.0334803 0.0147283,-0.0160709 0.0316929,-0.0292362 0.0508858,-0.0397283 0.014063,-0.00781102 0.0270079,-0.0167402 0.0392835,-0.0267835 0.0292362,-0.0263346 0.0533425,-0.0562441 0.0725394,-0.0903937 0.0227638,-0.0399488 0.0350394,-0.0828031 0.0372717,-0.12811l0 -0.00781496c0,-0.0160669 -0.00245669,-0.0343701 -0.00714173,-0.0549055 -0.00490945,-0.0205315 -0.014063,-0.0368268 -0.0274528,-0.0491024 -0.00692126,-0.00647244 -0.0154016,-0.0098189 -0.0254449,-0.0098189 -0.00914961,0 -0.0194173,0.00290157 -0.0307992,0.00848031 -0.0401772,0.0241063 -0.0687441,0.0580315 -0.0857087,0.101776 -0.0169606,0.043748 -0.0294606,0.0879409 -0.0372717,0.132354 -0.000448819,0.00401969 -0.00111811,0.00781102 -0.00200787,0.0118307 -0.0125,0.0584764 -0.0189724,0.116728 -0.0189724,0.175205 0,0.0415157 0.00312598,0.0828071 0.00914961,0.124319 0,0.00133858 0.000224409,0.00223228 0.000669291,0.00312598 0.0026811,0.0122756 0.00401969,0.0245512 0.00401969,0.0366024 0,0.00959843 -0.000893701,0.0191969 -0.0026811,0.0287953 -0.00691732,0.0258898 -0.0191929,0.0401732 -0.0366024,0.0432992 -0.00223228,0.000444882 -0.00424016,0.000669291 -0.00647244,0.000669291 -0.0145079,0 -0.0276772,-0.00892913 -0.0399528,-0.0263386 -0.00914961,-0.0147283 -0.015622,-0.0314685 -0.0191929,-0.0502165 -0.00379528,-0.018748 -0.00625197,-0.0372756 -0.00759055,-0.0555748 -0.000444882,-0.00401969 -0.000889764,-0.00759055 -0.00133858,-0.0111614 -0.00513386,-0.0511102 -0.00781102,-0.102 -0.00781102,-0.15311 0,-0.0229882 0.000444882,-0.0459803 0.00133858,-0.0685197 0.00223228,-0.0611575 0.00714173,-0.122087 0.0149528,-0.183244 0.00134252,-0.00870472 0.00245669,-0.0176299 0.00335039,-0.0267835 0.00178346,-0.0252205 0.00580315,-0.0497717 0.0125,-0.073878 0.00111417,-0.00825591 0.00290157,-0.0162913 0.00512992,-0.0241024 0.00357087,-0.0104921 0.0100472,-0.0160709 0.0196417,-0.0169646l0.0026811 0c0.00825591,0 0.0151772,0.00357087 0.0207559,0.0111614 0.00669685,0.00959843 0.0107126,0.020311 0.0125,0.0325866 0.00178346,0.0122756 0.00290157,0.0243268 0.00334646,0.0366024 0,0.00557874 0.000224409,0.010937 0.000669291,0.015622 0.00245669,0.035937 0.00468504,0.0714252 0.00647244,0.106689 0.000444882,0.00513386 0.000893701,0.0107126 0.00133858,0.0162913 0.00513386,-0.0225394 0.0113819,-0.0448622 0.0183031,-0.0667323 0.0125,-0.0412913 0.0372717,-0.0834764 0.073878,-0.126106 0.0278976,-0.0328071 0.0595906,-0.0491024 0.0955236,-0.0491024 0.0107165,0 0.0220984,0.00156299 0.0339252,0.00468898 0.021874,0.00914961 0.0410709,0.0241024 0.0582559,0.0446378 0.0169606,0.0207559 0.028122,0.0415118 0.0332559,0.0624921 0.00557874,0.0292402 0.00848031,0.0587008 0.00848031,0.0883858 0,0.0325866 -0.00334646,0.0653976 -0.0104882,0.0979803 -0.0183031,0.0580315 -0.0502205,0.108697 -0.0959764,0.152445 -0.0122756,0.0129449 -0.0261102,0.0261102 -0.0412874,0.0392795 0.0439685,0.0270079 0.077,0.0662874 0.0986496,0.118295 0.0754409,-0.0232126 0.139051,-0.0645039 0.190386,-0.124319zm-0.235472 0.25578c0.0035748,-0.0174094 0.00535827,-0.0352677 0.00535827,-0.053122 0,-0.00513386 -0.000224409,-0.0104882 -0.000669291,-0.015622 -0.0807953,0.0205315 -0.151102,0.056689 -0.211142,0.108472 -0.0122756,0.0122756 -0.0214252,0.0270039 -0.0276772,0.0439685 -0.00334646,0.00959843 -0.00512992,0.0185236 -0.00512992,0.0267835 0,0.00691732 0.00178346,0.0153976 0.00557874,0.0254449 0.00379528,0.0100433 0.0167402,0.0169606 0.0388346,0.0209803 0.00446457,0.000444882 0.00892913,0.000669291 0.0138386,0.000669291 0.0100433,0 0.0216496,-0.00156299 0.0350394,-0.00468898 0.0131693,-0.00290157 0.026563,-0.00691732 0.0401772,-0.0118307 0.0618228,-0.0243268 0.0970906,-0.0714213 0.105791,-0.141055z"/>
   </clipPath>
   <clipPath id="id1" style="clip-rule:nonzero">
    <path d="M1.81735 2.60735m0.196858 -0.197528c0.00223228,-0.00379134 0.00513386,-0.00602362 0.00870472,-0.00624803 0.00379134,-0.000224409 0.0073622,0.000893701 0.0109331,0.00312598 0.00245669,0.00155906 0.00379528,0.00424016 0.00379528,0.00781102l0 0.00133858c-0.00557874,0.0553504 -0.0205315,0.107579 -0.0450827,0.156906 -0.00870472,0.018748 -0.0189724,0.0368268 -0.0310276,0.0544606 -0.0120512,0.0176299 -0.0274528,0.0314685 -0.0462008,0.0415118 -0.00781102,0.00357087 -0.0153976,0.00535827 -0.0227638,0.00535827 -0.0122756,0 -0.0252205,-0.00647244 -0.0392835,-0.0194173 -0.0138386,-0.0127244 -0.0245512,-0.0285709 -0.0319173,-0.0473189 -0.0145039,-0.0366024 -0.0234331,-0.0745472 -0.0270039,-0.113827 -0.000224409,-0.00134252 -0.000448819,-0.00245669 -0.000448819,-0.00312598 0,-0.0017874 -0.000220472,-0.00357087 -0.000669291,-0.00535827 -0.00312205,-0.015622 -0.00468504,-0.0316929 -0.00468504,-0.0484331 0,-0.00825591 0.000444882,-0.0165157 0.00133858,-0.0247717 0,-0.0330354 0.00156299,-0.0665118 0.00446457,-0.0999921 0.00714173,-0.0790118 0.0216496,-0.156461 0.0439685,-0.232791 0.0116063,-0.0419606 0.0249961,-0.0828031 0.0397283,-0.12298l0.00133858 -0.00401575c0.00357087,-0.0107126 0.00759055,-0.0189724 0.0122756,-0.0247756 0.00446457,-0.00557874 0.0127244,-0.0102677 0.0243268,-0.0136142l0.00201181 -0.000669291c0.000889764,0 0.00200787,0.000220472 0.00334646,0.000669291 0.00133858,0.000444882 0.00245669,0.00111417 0.00312598,0.00245276 0.0089252,0.0118307 0.0131693,0.0258937 0.0131693,0.0419606 0,0.00290157 -0.000673228,0.0104921 -0.00223228,0.0220984 -0.00156299,0.0118268 -0.00535827,0.0276772 -0.0113858,0.0477638 -0.00401575,0.0140591 -0.00714173,0.0267835 -0.00914961,0.0386102 -0.00914961,0.0584764 -0.0160709,0.117177 -0.020311,0.175878 -0.000893701,0.0127205 -0.00200787,0.0252205 -0.00334646,0.0372717 -0.00513386,0.0383898 -0.00781102,0.0776732 -0.00781102,0.117846 0,0.0381654 0.00245276,0.0772244 0.00714173,0.116953 0.000889764,0.00312598 0.00178346,0.00714567 0.00267717,0.0125 0.0017874,0.0120551 0.00468898,0.025 0.00870472,0.0383898 0.00424016,0.0136142 0.010937,0.0216496 0.0200866,0.0243268l0.00245669 0c0.00758661,0 0.0145079,-0.00424016 0.0209803,-0.0124961 0.00669291,-0.00825984 0.0122756,-0.0180787 0.0169606,-0.029685 0.00490945,-0.0116063 0.00870472,-0.0216496 0.0118307,-0.0303543 0.000893701,-0.00357087 0.00178346,-0.00647244 0.00267717,-0.00848031l0.0104921 -0.0301339c0.00691732,-0.0241024 0.0158465,-0.0468701 0.0267835,-0.0687441z"/>
   </clipPath>
   <clipPath id="id2" style="clip-rule:nonzero">
    <path d="M2.00818 2.60735m0.341264 -0.216496c0.00401575,0.00267717 0.00290157,0.0129449 -0.00357087,0.0310236 -0.00625197,0.0180787 -0.0169646,0.0359331 -0.0323622,0.0533425 -0.0151772,0.0174094 -0.0332559,0.0294606 -0.0542362,0.0359331 -0.00602756,0.0479882 -0.0216496,0.0897244 -0.0464252,0.124988 -0.018748,0.0261142 -0.045311,0.0392835 -0.0796811,0.0392835 -0.0118307,0 -0.0245512,-0.00156299 -0.0379409,-0.00468898 -0.0629409,-0.0205315 -0.102224,-0.0586969 -0.118516,-0.114945 -0.00468898,-0.0167362 -0.00714567,-0.0330315 -0.00714567,-0.0491024 0,-0.0388346 0.0136181,-0.077 0.040622,-0.114496 0.00223228,-0.0026811 0.00446457,-0.00468898 0.00714173,-0.00647244 -0.00357087,-0.0127244 -0.00513386,-0.0252205 -0.00513386,-0.0379449 0,-0.0160709 0.00424409,-0.0348189 0.0127244,-0.0560197 0.00848031,-0.0209803 0.0283465,-0.0334803 0.059815,-0.0374961l0.0098189 0c0.0417402,0 0.0761102,0.0107126 0.102669,0.0321378 0.0138386,0.00982283 0.0254449,0.0214252 0.0345984,0.0345945 0.018748,0.0283465 0.0292362,0.0593701 0.0314685,0.0935197 0.00111417,0.0113819 0.0017874,0.0223189 0.0017874,0.0332559l0 0.00848031 -0.00111811 0.0169646c0.0133937,-0.00602756 0.0256693,-0.0154016 0.0366024,-0.028122 0.0102677,-0.0120551 0.0169646,-0.0227677 0.0194213,-0.0319173 0.00267717,-0.00781496 0.00714173,-0.0151772 0.0131654,-0.0223189 0.0017874,-0.0017874 0.00401969,-0.00245669 0.00647244,-0.00245669 0.000448819,0 0.00156299,0 0.00312598,0 0.00133858,0 0.00379528,0.000669291 0.00669685,0.00245669zm-0.192169 -0.0901732c-0.00870472,-0.00357087 -0.017189,-0.00513386 -0.0254449,-0.00513386 -0.0165157,0 -0.0319173,0.00647244 -0.0457559,0.0194213 -0.0127205,0.0158465 -0.0189724,0.0328071 -0.0189724,0.0511102 0,0.00914961 0.00156299,0.0185236 0.00446457,0.028122 0.00401969,0.0113819 0.00937402,0.0216496 0.0162953,0.0307992 0.0263346,0.0357126 0.061378,0.0553543 0.105346,0.0587008l0.00781102 0c0.0100433,0 0.0198661,-0.000669291 0.0294606,-0.00200787 0.00134252,-0.0138386 0.00201181,-0.0267835 0.00201181,-0.0383898 0,-0.00959843 -0.000448819,-0.018748 -0.00134252,-0.0274528 -0.00267717,-0.0401732 -0.0182992,-0.0736535 -0.0470906,-0.100213 -0.00825984,-0.00647244 -0.017189,-0.0113858 -0.0267835,-0.0149567zm-0.0633898 0.278547c0.015626,0.0265591 0.0330354,0.0399528 0.0522283,0.0399528 0.0160709,0 0.0332559,-0.00892913 0.0511102,-0.0267835l0.00134252 -0.00133858c0,-0.000448819 0.000220472,-0.000893701 0.000444882,-0.00134252 0.0122756,-0.0214252 0.0209803,-0.0453071 0.0263386,-0.0718661 -0.0113858,0.00156299 -0.0214291,0.00245276 -0.0301339,0.00245276 -0.00401575,0 -0.00736614,-0.000220472 -0.0104882,-0.000669291 -0.0383898,-0.00424016 -0.0745472,-0.0194173 -0.108472,-0.045752 -0.000448819,0.00624803 -0.000669291,0.0122756 -0.000669291,0.0182992 0,0.029685 0.00602362,0.0587008 0.0182992,0.0870472z"/>
   </clipPath>
   <clipPath id="id3" style="clip-rule:nonzero">
    <path d="M2.32467 2.60735m0.380543 -0.173197c0.00491339,-0.0196417 0.00915354,-0.029685 0.0131693,-0.0301339l0.0017874 0c0.00312205,0 0.00580315,0.00111811 0.00803543,0.00335039 0.00200787,0.00156299 0.00312205,0.00401575 0.00312205,0.00714173l-0.000669291 0.00379528c-0.00379528,0.0278976 -0.0104882,0.0546811 -0.0196417,0.0805709 -0.015622,0.0334803 -0.0374961,0.0629409 -0.0658386,0.0881614l-0.00401969 0.00401969c-0.00178346,0.00133858 -0.00401575,0.00290157 -0.00647244,0.00512992 -0.00267717,0.0017874 -0.00535827,0.00379528 -0.00781102,0.00625197 -0.00267717,0.00245276 -0.00446457,0.00446457 -0.00535827,0.00624803l0 0.00647244c0.000893701,0.00915354 0.00133858,0.0180787 0.00133858,0.0267835 0.0017874,0.0258898 0.0026811,0.0513346 0.0026811,0.0765551 0,0.0915118 -0.0118307,0.181906 -0.0354882,0.271406 -0.0116063,0.0388346 -0.0303543,0.0740984 -0.0560236,0.10624 -0.0258898,0.0321378 -0.059815,0.0511102 -0.10222,0.0571378 -0.00379528,0.000444882 -0.00781102,0.000669291 -0.0116063,0.000669291 -0.0305787,0 -0.0582559,-0.00959843 -0.0830276,-0.0287913 -0.025,-0.0191969 -0.0381654,-0.0466496 -0.0399528,-0.0823622 0,-0.00178346 0.000224409,-0.00312205 0.000669291,-0.00446063 -0.00267717,-0.010937 -0.00401575,-0.0207598 -0.00401575,-0.0294646 0.00312205,-0.0749921 0.0292362,-0.14128 0.078563,-0.198862 0.0435236,-0.0580315 0.0924016,-0.111374 0.146413,-0.160256l-0.00133858 -0.12878c0,-0.0100472 -0.000224409,-0.020311 -0.000669291,-0.0305787l-0.000669291 0.000669291 0 -0.00200787c0.000444882,-0.000448819 0.000669291,-0.000893701 0.000669291,-0.00133858 -0.000444882,-0.00535827 -0.000669291,-0.0104921 -0.000669291,-0.015626 -0.0243268,0.0557992 -0.0591457,0.0984291 -0.104453,0.128114 -0.0118307,0.00468504 -0.0232126,0.00714173 -0.0341496,0.00714173 -0.0200866,0 -0.0401772,-0.0111614 -0.0607087,-0.0332559 -0.0205354,-0.0223189 -0.0308031,-0.0493268 -0.0308031,-0.0812441 0.000448819,-0.0408425 0.00937402,-0.0814646 0.026563,-0.121862 0.017185,-0.0403976 0.0450827,-0.0694134 0.0839213,-0.0872677 0.0127205,-0.00490945 0.0245512,-0.00714173 0.0352638,-0.00714173 0.0140591,0 0.028122,0.00557874 0.0421811,0.0169606 0.0142874,0.0113819 0.0274528,0.0290157 0.0397283,0.0528976 0.00134252,-0.0174094 0.00401969,-0.0345945 0.00848425,-0.0515591 0.00334646,-0.0100433 0.0104882,-0.0158465 0.0209803,-0.017185 0.00155906,-0.000444882 0.00312205,-0.000669291 0.00446063,-0.000669291 0.00781496,0 0.0142874,0.00424016 0.0189724,0.0125 0.0205354,0.0453071 0.0325866,0.0932953 0.035937,0.143961 0.00133858,0.0109331 0.00267717,0.0212008 0.00401575,0.0312441 0,0.0017874 0.000224409,0.00379528 0.000669291,0.00602756 0.00557874,0.0252205 0.00848031,0.0575827 0.00848031,0.097311 0.0308031,-0.0243268 0.0524528,-0.0479843 0.0642795,-0.0705276 0.0120551,-0.0227677 0.0205354,-0.043748 0.0252205,-0.0633858zm-0.232787 0.0470906c0.0104882,-0.0162913 0.0200866,-0.0325827 0.0287913,-0.0491024l0.0118268 -0.0209803 0 -0.0417362c-0.00781102,-0.0131693 -0.017185,-0.0247756 -0.028122,-0.0348189 -0.00736614,-0.00691732 -0.015622,-0.0104882 -0.0243268,-0.0104882 -0.00379528,0 -0.00803543,0.000669291 -0.0122756,0.00200787 -0.0131693,0.00580315 -0.0223189,0.0147323 -0.0278976,0.0272283 -0.00535827,0.0122756 -0.00959843,0.0252244 -0.0127244,0.0381693 -0.000444882,0.00223228 -0.000893701,0.00424016 -0.00133858,0.00602362 -0.0100433,0.0395079 -0.0151772,0.080126 -0.015622,0.121417l0 0.00468898c0,0.0160709 0.00401575,0.0241024 0.0124961,0.0241024 0.00602756,0 0.0145079,-0.00446063 0.0254449,-0.0136142 0.00825984,-0.00647244 0.0162953,-0.0151772 0.0241063,-0.0254409 0.00781102,-0.0104921 0.0145079,-0.0196417 0.0196417,-0.0274567zm0.0444134 0.51848c0.00714173,-0.0366024 0.0104921,-0.0740984 0.0104921,-0.112488 0,-0.021874 -0.00111811,-0.0439685 -0.00312598,-0.0667362 -0.00133858,-0.0196417 -0.00223228,-0.0388346 -0.00267717,-0.0575827 -0.000448819,-0.0151772 -0.000893701,-0.0305787 -0.00134252,-0.0464252l0 -0.020311c-0.00557874,0.00580315 -0.0113819,0.0111614 -0.0169606,0.0165157 -0.0540118,0.0517835 -0.100213,0.109591 -0.138602,0.173201 -0.0214291,0.0366024 -0.0321417,0.072315 -0.0321417,0.107354 0,0.0357126 0.0111614,0.070752 0.0334803,0.105126 0.0129449,0.00624803 0.0258898,0.00914961 0.0383898,0.00914961 0.018748,0 0.0372717,-0.00602756 0.0555748,-0.0183031 0.029685,-0.0225433 0.0486575,-0.0524488 0.0569134,-0.0895z"/>
   </clipPath>
   <clipPath id="id4" style="clip-rule:nonzero">
    <path d="M2.69271 2.60735m0.380543 -0.173197c0.00491339,-0.0196417 0.00915354,-0.029685 0.0131693,-0.0301339l0.0017874 0c0.00312205,0 0.00580315,0.00111811 0.00803543,0.00335039 0.00200787,0.00156299 0.00312205,0.00401575 0.00312205,0.00714173l-0.000669291 0.00379528c-0.00379528,0.0278976 -0.0104882,0.0546811 -0.0196417,0.0805709 -0.015622,0.0334803 -0.0374961,0.0629409 -0.0658386,0.0881614l-0.00401969 0.00401969c-0.00178346,0.00133858 -0.00401575,0.00290157 -0.00647244,0.00512992 -0.00267717,0.0017874 -0.00535827,0.00379528 -0.00781102,0.00625197 -0.00267717,0.00245276 -0.00446457,0.00446457 -0.00535827,0.00624803l0 0.00647244c0.000893701,0.00915354 0.00133858,0.0180787 0.00133858,0.0267835 0.0017874,0.0258898 0.0026811,0.0513346 0.0026811,0.0765551 0,0.0915118 -0.0118307,0.181906 -0.0354882,0.271406 -0.0116063,0.0388346 -0.0303543,0.0740984 -0.0560236,0.10624 -0.0258898,0.0321378 -0.059815,0.0511102 -0.10222,0.0571378 -0.00379528,0.000444882 -0.00781102,0.000669291 -0.0116063,0.000669291 -0.0305787,0 -0.0582559,-0.00959843 -0.0830276,-0.0287913 -0.025,-0.0191969 -0.0381654,-0.0466496 -0.0399528,-0.0823622 0,-0.00178346 0.000224409,-0.00312205 0.000669291,-0.00446063 -0.00267717,-0.010937 -0.00401575,-0.0207598 -0.00401575,-0.0294646 0.00312205,-0.0749921 0.0292362,-0.14128 0.078563,-0.198862 0.0435236,-0.0580315 0.0924016,-0.111374 0.146413,-0.160256l-0.00133858 -0.12878c0,-0.0100472 -0.000224409,-0.020311 -0.000669291,-0.0305787l-0.000669291 0.000669291 0 -0.00200787c0.000444882,-0.000448819 0.000669291,-0.000893701 0.000669291,-0.00133858 -0.000444882,-0.00535827 -0.000669291,-0.0104921 -0.000669291,-0.015626 -0.0243268,0.0557992 -0.0591457,0.0984291 -0.104453,0.128114 -0.0118307,0.00468504 -0.0232126,0.00714173 -0.0341496,0.00714173 -0.0200866,0 -0.0401772,-0.0111614 -0.0607087,-0.0332559 -0.0205354,-0.0223189 -0.0308031,-0.0493268 -0.0308031,-0.0812441 0.000448819,-0.0408425 0.00937402,-0.0814646 0.026563,-0.121862 0.017185,-0.0403976 0.0450827,-0.0694134 0.0839213,-0.0872677 0.0127205,-0.00490945 0.0245512,-0.00714173 0.0352638,-0.00714173 0.0140591,0 0.028122,0.00557874 0.0421811,0.0169606 0.0142874,0.0113819 0.0274528,0.0290157 0.0397283,0.0528976 0.00134252,-0.0174094 0.00401969,-0.0345945 0.00848425,-0.0515591 0.00334646,-0.0100433 0.0104882,-0.0158465 0.0209803,-0.017185 0.00155906,-0.000444882 0.00312205,-0.000669291 0.00446063,-0.000669291 0.00781496,0 0.0142874,0.00424016 0.0189724,0.0125 0.0205354,0.0453071 0.0325866,0.0932953 0.035937,0.143961 0.00133858,0.0109331 0.00267717,0.0212008 0.00401575,0.0312441 0,0.0017874 0.000224409,0.00379528 0.000669291,0.00602756 0.00557874,0.0252205 0.00848031,0.0575827 0.00848031,0.097311 0.0308031,-0.0243268 0.0524528,-0.0479843 0.0642795,-0.0705276 0.0120551,-0.0227677 0.0205354,-0.043748 0.0252205,-0.0633858zm-0.232787 0.0470906c0.0104882,-0.0162913 0.0200866,-0.0325827 0.0287913,-0.0491024l0.0118268 -0.0209803 0 -0.0417362c-0.00781102,-0.0131693 -0.017185,-0.0247756 -0.028122,-0.0348189 -0.00736614,-0.00691732 -0.015622,-0.0104882 -0.0243268,-0.0104882 -0.00379528,0 -0.00803543,0.000669291 -0.0122756,0.00200787 -0.0131693,0.00580315 -0.0223189,0.0147323 -0.0278976,0.0272283 -0.00535827,0.0122756 -0.00959843,0.0252244 -0.0127244,0.0381693 -0.000444882,0.00223228 -0.000893701,0.00424016 -0.00133858,0.00602362 -0.0100433,0.0395079 -0.0151772,0.080126 -0.015622,0.121417l0 0.00468898c0,0.0160709 0.00401575,0.0241024 0.0124961,0.0241024 0.00602756,0 0.0145079,-0.00446063 0.0254449,-0.0136142 0.00825984,-0.00647244 0.0162953,-0.0151772 0.0241063,-0.0254409 0.00781102,-0.0104921 0.0145079,-0.0196417 0.0196417,-0.0274567zm0.0444134 0.51848c0.00714173,-0.0366024 0.0104921,-0.0740984 0.0104921,-0.112488 0,-0.021874 -0.00111811,-0.0439685 -0.00312598,-0.0667362 -0.00133858,-0.0196417 -0.00223228,-0.0388346 -0.00267717,-0.0575827 -0.000448819,-0.0151772 -0.000893701,-0.0305787 -0.00134252,-0.0464252l0 -0.020311c-0.00557874,0.00580315 -0.0113819,0.0111614 -0.0169606,0.0165157 -0.0540118,0.0517835 -0.100213,0.109591 -0.138602,0.173201 -0.0214291,0.0366024 -0.0321417,0.072315 -0.0321417,0.107354 0,0.0357126 0.0111614,0.070752 0.0334803,0.105126 0.0129449,0.00624803 0.0258898,0.00914961 0.0383898,0.00914961 0.018748,0 0.0372717,-0.00602756 0.0555748,-0.0183031 0.029685,-0.0225433 0.0486575,-0.0524488 0.0569134,-0.0895z"/>
   </clipPath>
   <clipPath id="id5" style="clip-rule:nonzero">
    <path d="M3.06076 2.60735m0.331441 -0.213819c0.0026811,-0.00133858 0.00513386,-0.00200787 0.00736614,-0.00200787 0.00245669,0 0.00490945,0.000889764 0.00714173,0.00267717 0.00290157,0.00267717 0.00156299,0.0185236 -0.00424016,0.0479882 -0.00602362,0.0294606 -0.0207559,0.0680709 -0.0441929,0.116059 -0.0234331,0.0479882 -0.058252,0.081689 -0.104008,0.101331 -0.0214252,0.00758661 -0.0419606,0.0111575 -0.0620472,0.0111575 -0.0243268,0 -0.0524488,-0.00758661 -0.0843661,-0.0232126 -0.0319173,-0.0153976 -0.0562441,-0.0464213 -0.0732087,-0.0930709 -0.00647244,-0.0236575 -0.0098189,-0.0466457 -0.0098189,-0.0694134 0,-0.0305748 0.00557874,-0.0604843 0.0169606,-0.0901693 0.00825984,-0.021874 0.0207598,-0.0453071 0.0377205,-0.070752 0.0167402,-0.0252205 0.0357126,-0.0432992 0.0571378,-0.0542362 0.0169646,-0.00602756 0.0321417,-0.00914961 0.0457559,-0.00914961 0.0265591,0 0.045752,0.0127205 0.0575827,0.0379409 0.00914961,0.0196417 0.0136142,0.040622 0.0136142,0.0627165 0,0.0209803 -0.00624803,0.0495512 -0.0189724,0.0857087 -0.0124961,0.0361575 -0.0444134,0.0611535 -0.0953031,0.0745472 0.000448819,0.000444882 0.000669291,0.000889764 0.000669291,0.00133858 0,0.000893701 0,0.00178346 0.000448819,0.00267717 0.0113819,0.0392835 0.0321378,0.0660669 0.0622717,0.0803504 0.00959449,0.00446457 0.0194173,0.00647244 0.0294606,0.00647244 0.020311,0 0.0412913,-0.00982283 0.0627165,-0.0292402 0.0397283,-0.0475394 0.0720906,-0.110701 0.097311,-0.189713zm-0.22163 -0.032811c-0.0205354,0.035937 -0.0321378,0.0745472 -0.0352638,0.115839 0.0287913,-0.00825984 0.0522283,-0.0252205 0.0705276,-0.0508898 0.00959843,-0.0153976 0.0160709,-0.0323622 0.0189724,-0.0511102 0.000893701,-0.00513386 0.00133858,-0.0102677 0.00133858,-0.0149528 0,-0.0131693 -0.00245276,-0.0258898 -0.00781102,-0.0379449 -0.00424016,-0.00223228 -0.00825984,-0.00334646 -0.0118307,-0.00334646 -0.00513386,0 -0.0104882,0.00290157 -0.0158465,0.00892913 -0.00557874,0.00580315 -0.010937,0.0145079 -0.0160709,0.0256654l-0.00401575 0.00781102z"/>
   </clipPath>
   <clipPath id="id6" style="clip-rule:nonzero">
    <path d="M3.38127 2.60735m0.25578 -0.203331c0.00111811,-0.00535433 0.00401969,-0.00825591 0.00848031,-0.00914961l0.0017874 0c0.00312598,0 0.00647244,0.00111417 0.0098189,0.00312598 0.0026811,0.00267717 0.00401969,0.00580315 0.00401969,0.00937402l0 0.00312205c-0.00401969,0.0245512 -0.0138386,0.0600394 -0.029685,0.106689 -0.0160709,0.0466457 -0.0372756,0.0857047 -0.0638346,0.117622 -0.0169606,0.0200866 -0.0357087,0.0301299 -0.0562441,0.0301299 -0.0118307,0 -0.0243268,-0.00357087 -0.0379449,-0.0104882 -0.0247717,-0.0174094 -0.0377165,-0.042185 -0.0386102,-0.073878l0 -0.0104882c0,-0.0279016 0.00312598,-0.0535669 0.00914961,-0.0772283 0.00357087,-0.0133898 0.00759055,-0.0270039 0.0125,-0.0403976 0.00691732,-0.0196378 0.0120512,-0.0395039 0.0149528,-0.0595906l0 -0.00401969c0,-0.0138386 -0.00490945,-0.0241024 -0.0149528,-0.0310236 -0.0100433,-0.00669291 -0.021874,-0.0118268 -0.0352638,-0.0153976 -0.00714173,-0.00201181 -0.0136142,-0.00424409 -0.0196417,-0.00647244l0 0.000669291c0.00468504,0.0127205 0.00714173,0.0265591 0.00714173,0.0419606 0,0.00914961 -0.000893701,0.0189685 -0.00267717,0.0292362 -0.00245669,0.00914961 -0.00803543,0.0138386 -0.0162953,0.0138386l-0.00334646 0c-0.00290157,-0.000893701 -0.00468898,-0.00334646 -0.00513386,-0.00714173 -0.000444882,-0.00223228 -0.000669291,-0.00424016 -0.000669291,-0.00602756 0,-0.00156299 0.000224409,-0.00312598 0.000669291,-0.00446457 0.00223228,-0.00959449 0.00334646,-0.0176299 0.00357087,-0.0238819 0.000224409,-0.00624803 -0.000224409,-0.0136142 -0.00156299,-0.0218701 -0.00178346,-0.00736614 -0.00312205,-0.0131693 -0.00401575,-0.0169646 -0.000893701,-0.00223228 -0.00156299,-0.00446457 -0.00200787,-0.00669685 -0.000448819,-0.000889764 -0.000673228,-0.00155906 -0.000673228,-0.00178346 -0.000220472,-0.000893701 -0.000444882,-0.0017874 -0.000444882,-0.00267717 -0.00133858,-0.00401969 -0.00267717,-0.00803543 -0.00401575,-0.0125l0 -0.000669291c-0.00133858,-0.000893701 -0.00245669,-0.0017874 -0.00335039,-0.0026811 -0.000889764,-0.000669291 -0.00156299,-0.00133858 -0.00245276,-0.00178346 -0.00491339,-0.00401575 -0.00892913,-0.00848031 -0.0125,-0.0138386 -0.00267717,-0.00468504 -0.00401575,-0.0100433 -0.00401575,-0.015622 0,-0.000893701 0.000220472,-0.00312598 0.000444882,-0.00692126 0.000224409,-0.00357087 0.00290157,-0.00781102 0.00803543,-0.0120512 0.00446457,-0.00267717 0.00848031,-0.00401575 0.0118268,-0.00401575 0.0035748,0 0.00669685,0.00133858 0.00982283,0.00401575 0.00535433,0.00468504 0.00870472,0.0100433 0.0104882,0.015622 0.0017874,0.00580315 0.0026811,0.0129449 0.0026811,0.0216496 0.00178346,0.000893701 0.00401575,0.00201181 0.00714173,0.00335039 0.00312205,0.00111417 0.00580315,0.00223228 0.00848031,0.00312205 0.00267717,0.000893701 0.00424016,0.00134252 0.00468898,0.00134252 0.00557874,0.00133858 0.0113819,0.00245276 0.0176299,0.00334646 0.00290157,0.000444882 0.00580315,0.000893701 0.00848031,0.00133858 0.0147323,0.00200787 0.029685,0.00490945 0.0444173,0.00848031 0.0319173,0.0107165 0.0502165,0.0310236 0.0549055,0.0607087 0.00223228,0.0136181 0.00334646,0.0267835 0.00334646,0.0399528 0,0.0160709 -0.00156299,0.0319173 -0.00468504,0.0477638 -0.000448819,0.00379528 -0.00156299,0.0098189 -0.00312598,0.0176339 -0.00312598,0.0129449 -0.00624803,0.0283425 -0.00914961,0.045752 -0.00133858,0.00915354 -0.00200787,0.0178583 -0.00200787,0.0261142 0,0.00647244 0.000444882,0.0129449 0.00133858,0.0189724 0.00200787,0.0122756 0.00870472,0.0183031 0.0196417,0.0183031l0.00111417 0c0.00223228,-0.000448819 0.00580315,-0.00401969 0.010937,-0.0107165 0.00490945,-0.00691732 0.0098189,-0.0142835 0.0147283,-0.0223189 0.00468898,-0.00803543 0.00870472,-0.0145079 0.0116063,-0.0191929 0.000448819,-0.00133858 0.00111811,-0.00223228 0.00201181,-0.00267717 0.0247717,-0.0435236 0.0424055,-0.0897244 0.0524488,-0.138606z"/>
   </clipPath>
   <clipPath id="id7" style="clip-rule:nonzero">
    <path d="M3.63638 2.60735m0.644807 -0.681409c0.00513386,-0.00602756 0.010937,-0.00914961 0.0176299,-0.00914961 0.00223228,0 0.00625197,0.000889764 0.0120551,0.00267717 0.00580315,0.00178346 0.0111575,0.00647244 0.0160669,0.0142835 0.00223228,0.00401575 0.00312598,0.00803543 0.00312598,0.0118307 0,0.00446457 -0.00133858,0.0089252 -0.00446457,0.0138386 -0.0151772,0.0200866 -0.0361575,0.0330315 -0.0627165,0.0390551 -0.0162913,0.00401969 -0.0319173,0.00602756 -0.0470945,0.00602756 -0.0100433,0 -0.0198622,-0.000893701 -0.0294606,-0.00267717 -0.00781102,-0.00133858 -0.0151772,-0.00312598 -0.0223189,-0.00513386 0.00357087,0.0274528 0.00535827,0.0542362 0.00535827,0.0803504 0,0.0174094 -0.000673228,0.0343701 -0.00201181,0.0511102 -0.00736614,0.107579 -0.0249961,0.213598 -0.0528976,0.317606 -0.0153976,0.0580276 -0.0339252,0.115165 -0.0555748,0.171409 -0.0149528,0.045311 -0.0395039,0.0903937 -0.073874,0.135256 -0.0254449,0.0332559 -0.056248,0.0497717 -0.0928504,0.0497717 -0.0136142,0 -0.0278976,-0.00223228 -0.0426299,-0.00647244 -0.0435236,-0.0200866 -0.0767795,-0.0540118 -0.0993228,-0.102 -0.0227638,-0.0479843 -0.0399488,-0.094185 -0.0517795,-0.138602 -0.00133858,-0.00401575 -0.00223228,-0.00781102 -0.00312598,-0.0111575 -0.0323622,-0.115614 -0.0508858,-0.233461 -0.0555748,-0.353764 -0.00178346,-0.0383898 -0.00267717,-0.077 -0.00267717,-0.115839 0,-0.0191929 0.000224409,-0.0383858 0.000669291,-0.0575827 0,-0.00870472 -0.000224409,-0.0178543 -0.000669291,-0.0274528 -0.000444882,-0.00647244 -0.000669291,-0.0127205 -0.000669291,-0.0189724 0,-0.0160669 0.00111417,-0.0339252 0.00334646,-0.0537874 0.00201181,-0.0198661 0.00915354,-0.0383898 0.0207598,-0.0553543 0.00446063,-0.00557874 0.0100433,-0.00937402 0.017185,-0.0111575 0.00111417,-0.000448819 0.00267717,-0.000669291 0.00446457,-0.000669291 0.00535433,0 0.0100433,0.00245276 0.0145079,0.00736614 0.015622,0.0212008 0.0252205,0.0466457 0.0285669,0.0758858 0.00357087,0.0265591 0.00535827,0.0531181 0.00535827,0.0796772l0 0.00915354c0,0.0191929 0.000444882,0.0368268 0.00133858,0.0528937 0.00557874,0.0854843 0.0149528,0.170524 0.028122,0.25511 0.0138386,0.0845906 0.0345945,0.167622 0.0620472,0.249087 0.00557874,0.0169606 0.0116063,0.0337008 0.0176339,0.0504409 0.0073622,0.0200866 0.0147283,0.0399528 0.0216496,0.0600394 0.00424016,0.0145079 0.0107126,0.0267835 0.0189685,0.0372717 0.00558268,0.00736614 0.0138386,0.0111614 0.0247756,0.0111614 0.00401969,0 0.00825984,-0.000444882 0.0131693,-0.00133858 0.0292362,-0.00870472 0.0511102,-0.0261142 0.0656181,-0.0520039 0.0147323,-0.0258898 0.0261142,-0.0533425 0.034374,-0.0819134l0.00914961 -0.0249961c0.0261142,-0.0718701 0.047315,-0.145079 0.0633858,-0.219622 0.0227677,-0.0767795 0.0339252,-0.153335 0.0339252,-0.229445 0,-0.0551299 -0.00580315,-0.110035 -0.0176299,-0.164941 -0.015626,-0.0142835 -0.028122,-0.0316929 -0.0372756,-0.0522244 -0.00156299,-0.0035748 -0.00245276,-0.00669685 -0.00245276,-0.00982283 0,-0.00357087 0.00133858,-0.00736614 0.00424016,-0.0118268 0.00267717,-0.00424409 0.00736614,-0.00736614 0.0140591,-0.00915354 0.00335039,-0.00424016 0.00759055,-0.00669685 0.0122756,-0.00714173l0.00201181 0c0.00446063,0 0.00848031,0.00200787 0.0124961,0.00580315 0.0125,0.0145079 0.0227677,0.0303543 0.0308031,0.0477638 0.0216496,0.0154016 0.0455315,0.0241063 0.0711969,0.0261142 0.00267717,0.000444882 0.00535827,0.000669291 0.00848031,0.000669291 0.021874,0 0.0412913,-0.00914961 0.0582559,-0.0274528z"/>
   </clipPath>
   <clipPath id="id8" style="clip-rule:nonzero">
    <path d="M4.17249 2.60735m0.171413 -0.195516c0.000444882,-0.00513386 0.00267717,-0.00825984 0.00714173,-0.00915354l0.00200787 0c0.00335039,0 0.00692126,0.00133858 0.0107126,0.00401969 0.00379528,0.00245276 0.00558268,0.00647244 0.00558268,0.0116063 -0.000893701,0.0249961 -0.00602756,0.0604843 -0.015626,0.106909 -0.00959449,0.0464213 -0.0256654,0.0857047 -0.0477638,0.117398 -0.0145079,0.0205354 -0.0319173,0.0308031 -0.0524488,0.0308031 -0.0120512,0 -0.0252205,-0.00357087 -0.0390591,-0.0104921 -0.0167402,-0.00959843 -0.0285709,-0.0220945 -0.0361575,-0.0374961 -0.00736614,-0.015622 -0.0116063,-0.0319173 -0.0129449,-0.048878 -0.00401969,-0.0403976 -0.00602756,-0.0807992 -0.00602756,-0.120972 0,-0.0265591 0.000893701,-0.0531181 0.0026811,-0.0796811 0.000444882,-0.0196417 0.00401575,-0.0386102 0.0107126,-0.0569134 0.00691732,-0.0183031 0.0191929,-0.0319173 0.0370472,-0.040622 0.0026811,-0.00111417 0.00513386,-0.00178346 0.00781496,-0.00178346 0.00490945,0 0.00937402,0.00223228 0.0138346,0.00714173 0.010937,0.0138386 0.0174094,0.0290157 0.0196417,0.0450827 0.00111811,0.010937 0.0017874,0.021874 0.0017874,0.0325866 0,0.00580315 -0.000224409,0.0111614 -0.000669291,0.0165157l0 0.0640591c0,0.0303543 0.000220472,0.0611535 0.000669291,0.0921772l0 0.0104921c-0.000448819,0.00513386 -0.000669291,0.010937 -0.000669291,0.0169606 0,0.00312598 0.000220472,0.00781496 0.000444882,0.0142874 0.000224409,0.00669291 0.00200787,0.0131654 0.00557874,0.0196378 0.00335039,0.00669685 0.00959843,0.00982283 0.0183031,0.00982283l0.00200787 0c0.00245669,-0.000448819 0.00580315,-0.00401969 0.00982283,-0.0107126 0.00379134,-0.00669685 0.00781102,-0.0142874 0.0116063,-0.0223228 0.00401575,-0.0080315 0.00691732,-0.0145039 0.00848031,-0.0191929 0.000893701,-0.000893701 0.00133858,-0.00178346 0.00133858,-0.00267717 0.0196417,-0.0430787 0.0310236,-0.0892795 0.0341496,-0.138602zm-0.134142 -0.260913c0.0127244,0 0.0238819,0.00446063 0.0337047,0.0133898 0.0098189,0.00892913 0.0160709,0.0198661 0.0185236,0.0323622 0.000448819,0.00223228 0.000669291,0.00424016 0.000669291,0.00602756 0,0.00379528 -0.000669291,0.00825591 -0.00223228,0.0133898 -0.00156299,0.00491339 -0.00401575,0.00937402 -0.00758661,0.0133937 -0.00870472,0.00914961 -0.0189724,0.0136142 -0.0305787,0.0136142 -0.0131693,0 -0.0245512,-0.00446457 -0.0341496,-0.0133898 -0.00959449,-0.00892913 -0.015622,-0.0198661 -0.0182992,-0.0330354 -0.000448819,-0.00267717 -0.000669291,-0.00490945 -0.000669291,-0.00714173 0,-0.00357087 0.000669291,-0.00758661 0.00200787,-0.0120512 0.00133858,-0.00468898 0.00401575,-0.00915354 0.00781102,-0.0133937 0.00825984,-0.00870472 0.0185236,-0.0131654 0.0307992,-0.0131654z"/>
   </clipPath>
   <clipPath id="id9" style="clip-rule:nonzero">
    <path d="M4.34323 2.60735m0.196858 -0.197528c0.00223228,-0.00379134 0.00513386,-0.00602362 0.00870472,-0.00624803 0.00379134,-0.000224409 0.0073622,0.000893701 0.0109331,0.00312598 0.00245669,0.00155906 0.00379528,0.00424016 0.00379528,0.00781102l0 0.00133858c-0.00557874,0.0553504 -0.0205315,0.107579 -0.0450827,0.156906 -0.00870472,0.018748 -0.0189724,0.0368268 -0.0310276,0.0544606 -0.0120512,0.0176299 -0.0274528,0.0314685 -0.0462008,0.0415118 -0.00781102,0.00357087 -0.0153976,0.00535827 -0.0227638,0.00535827 -0.0122756,0 -0.0252205,-0.00647244 -0.0392835,-0.0194173 -0.0138386,-0.0127244 -0.0245512,-0.0285709 -0.0319173,-0.0473189 -0.0145039,-0.0366024 -0.0234331,-0.0745472 -0.0270039,-0.113827 -0.000224409,-0.00134252 -0.000448819,-0.00245669 -0.000448819,-0.00312598 0,-0.0017874 -0.000220472,-0.00357087 -0.000669291,-0.00535827 -0.00312205,-0.015622 -0.00468504,-0.0316929 -0.00468504,-0.0484331 0,-0.00825591 0.000444882,-0.0165157 0.00133858,-0.0247717 0,-0.0330354 0.00156299,-0.0665118 0.00446457,-0.0999921 0.00714173,-0.0790118 0.0216496,-0.156461 0.0439685,-0.232791 0.0116063,-0.0419606 0.0249961,-0.0828031 0.0397283,-0.12298l0.00133858 -0.00401575c0.00357087,-0.0107126 0.00759055,-0.0189724 0.0122756,-0.0247756 0.00446457,-0.00557874 0.0127244,-0.0102677 0.0243268,-0.0136142l0.00201181 -0.000669291c0.000889764,0 0.00200787,0.000220472 0.00334646,0.000669291 0.00133858,0.000444882 0.00245669,0.00111417 0.00312598,0.00245276 0.0089252,0.0118307 0.0131693,0.0258937 0.0131693,0.0419606 0,0.00290157 -0.000673228,0.0104921 -0.00223228,0.0220984 -0.00156299,0.0118268 -0.00535827,0.0276772 -0.0113858,0.0477638 -0.00401575,0.0140591 -0.00714173,0.0267835 -0.00914961,0.0386102 -0.00914961,0.0584764 -0.0160709,0.117177 -0.020311,0.175878 -0.000893701,0.0127205 -0.00200787,0.0252205 -0.00334646,0.0372717 -0.00513386,0.0383898 -0.00781102,0.0776732 -0.00781102,0.117846 0,0.0381654 0.00245276,0.0772244 0.00714173,0.116953 0.000889764,0.00312598 0.00178346,0.00714567 0.00267717,0.0125 0.0017874,0.0120551 0.00468898,0.025 0.00870472,0.0383898 0.00424016,0.0136142 0.010937,0.0216496 0.0200866,0.0243268l0.00245669 0c0.00758661,0 0.0145079,-0.00424016 0.0209803,-0.0124961 0.00669291,-0.00825984 0.0122756,-0.0180787 0.0169606,-0.029685 0.00490945,-0.0116063 0.00870472,-0.0216496 0.0118307,-0.0303543 0.000893701,-0.00357087 0.00178346,-0.00647244 0.00267717,-0.00848031l0.0104921 -0.0301339c0.00691732,-0.0241024 0.0158465,-0.0468701 0.0267835,-0.0687441z"/>
   </clipPath>
   <clipPath id="id10" style="clip-rule:nonzero">
    <path d="M4.53406 2.60735m0.196858 -0.197528c0.00223228,-0.00379134 0.00513386,-0.00602362 0.00870472,-0.00624803 0.00379134,-0.000224409 0.0073622,0.000893701 0.0109331,0.00312598 0.00245669,0.00155906 0.00379528,0.00424016 0.00379528,0.00781102l0 0.00133858c-0.00557874,0.0553504 -0.0205315,0.107579 -0.0450827,0.156906 -0.00870472,0.018748 -0.0189724,0.0368268 -0.0310276,0.0544606 -0.0120512,0.0176299 -0.0274528,0.0314685 -0.0462008,0.0415118 -0.00781102,0.00357087 -0.0153976,0.00535827 -0.0227638,0.00535827 -0.0122756,0 -0.0252205,-0.00647244 -0.0392835,-0.0194173 -0.0138386,-0.0127244 -0.0245512,-0.0285709 -0.0319173,-0.0473189 -0.0145039,-0.0366024 -0.0234331,-0.0745472 -0.0270039,-0.113827 -0.000224409,-0.00134252 -0.000448819,-0.00245669 -0.000448819,-0.00312598 0,-0.0017874 -0.000220472,-0.00357087 -0.000669291,-0.00535827 -0.00312205,-0.015622 -0.00468504,-0.0316929 -0.00468504,-0.0484331 0,-0.00825591 0.000444882,-0.0165157 0.00133858,-0.0247717 0,-0.0330354 0.00156299,-0.0665118 0.00446457,-0.0999921 0.00714173,-0.0790118 0.0216496,-0.156461 0.0439685,-0.232791 0.0116063,-0.0419606 0.0249961,-0.0828031 0.0397283,-0.12298l0.00133858 -0.00401575c0.00357087,-0.0107126 0.00759055,-0.0189724 0.0122756,-0.0247756 0.00446457,-0.00557874 0.0127244,-0.0102677 0.0243268,-0.0136142l0.00201181 -0.000669291c0.000889764,0 0.00200787,0.000220472 0.00334646,0.000669291 0.00133858,0.000444882 0.00245669,0.00111417 0.00312598,0.00245276 0.0089252,0.0118307 0.0131693,0.0258937 0.0131693,0.0419606 0,0.00290157 -0.000673228,0.0104921 -0.00223228,0.0220984 -0.00156299,0.0118268 -0.00535827,0.0276772 -0.0113858,0.0477638 -0.00401575,0.0140591 -0.00714173,0.0267835 -0.00914961,0.0386102 -0.00914961,0.0584764 -0.0160709,0.117177 -0.020311,0.175878 -0.000893701,0.0127205 -0.00200787,0.0252205 -0.00334646,0.0372717 -0.00513386,0.0383898 -0.00781102,0.0776732 -0.00781102,0.117846 0,0.0381654 0.00245276,0.0772244 0.00714173,0.116953 0.000889764,0.00312598 0.00178346,0.00714567 0.00267717,0.0125 0.0017874,0.0120551 0.00468898,0.025 0.00870472,0.0383898 0.00424016,0.0136142 0.010937,0.0216496 0.0200866,0.0243268l0.00245669 0c0.00758661,0 0.0145079,-0.00424016 0.0209803,-0.0124961 0.00669291,-0.00825984 0.0122756,-0.0180787 0.0169606,-0.029685 0.00490945,-0.0116063 0.00870472,-0.0216496 0.0118307,-0.0303543 0.000893701,-0.00357087 0.00178346,-0.00647244 0.00267717,-0.00848031l0.0104921 -0.0301339c0.00691732,-0.0241024 0.0158465,-0.0468701 0.0267835,-0.0687441z"/>
   </clipPath>
   <clipPath id="id11" style="clip-rule:nonzero">
    <path d="M4.72489 2.60735m0.331441 -0.213819c0.0026811,-0.00133858 0.00513386,-0.00200787 0.00736614,-0.00200787 0.00245669,0 0.00490945,0.000889764 0.00714173,0.00267717 0.00290157,0.00267717 0.00156299,0.0185236 -0.00424016,0.0479882 -0.00602362,0.0294606 -0.0207559,0.0680709 -0.0441929,0.116059 -0.0234331,0.0479882 -0.058252,0.081689 -0.104008,0.101331 -0.0214252,0.00758661 -0.0419606,0.0111575 -0.0620472,0.0111575 -0.0243268,0 -0.0524488,-0.00758661 -0.0843661,-0.0232126 -0.0319173,-0.0153976 -0.0562441,-0.0464213 -0.0732087,-0.0930709 -0.00647244,-0.0236575 -0.0098189,-0.0466457 -0.0098189,-0.0694134 0,-0.0305748 0.00557874,-0.0604843 0.0169606,-0.0901693 0.00825984,-0.021874 0.0207598,-0.0453071 0.0377205,-0.070752 0.0167402,-0.0252205 0.0357126,-0.0432992 0.0571378,-0.0542362 0.0169646,-0.00602756 0.0321417,-0.00914961 0.0457559,-0.00914961 0.0265591,0 0.045752,0.0127205 0.0575827,0.0379409 0.00914961,0.0196417 0.0136142,0.040622 0.0136142,0.0627165 0,0.0209803 -0.00624803,0.0495512 -0.0189724,0.0857087 -0.0124961,0.0361575 -0.0444134,0.0611535 -0.0953031,0.0745472 0.000448819,0.000444882 0.000669291,0.000889764 0.000669291,0.00133858 0,0.000893701 0,0.00178346 0.000448819,0.00267717 0.0113819,0.0392835 0.0321378,0.0660669 0.0622717,0.0803504 0.00959449,0.00446457 0.0194173,0.00647244 0.0294606,0.00647244 0.020311,0 0.0412913,-0.00982283 0.0627165,-0.0292402 0.0397283,-0.0475394 0.0720906,-0.110701 0.097311,-0.189713zm-0.22163 -0.032811c-0.0205354,0.035937 -0.0321378,0.0745472 -0.0352638,0.115839 0.0287913,-0.00825984 0.0522283,-0.0252205 0.0705276,-0.0508898 0.00959843,-0.0153976 0.0160709,-0.0323622 0.0189724,-0.0511102 0.000893701,-0.00513386 0.00133858,-0.0102677 0.00133858,-0.0149528 0,-0.0131693 -0.00245276,-0.0258898 -0.00781102,-0.0379449 -0.00424016,-0.00223228 -0.00825984,-0.00334646 -0.0118307,-0.00334646 -0.00513386,0 -0.0104882,0.00290157 -0.0158465,0.00892913 -0.00557874,0.00580315 -0.010937,0.0145079 -0.0160709,0.0256654l-0.00401575 0.00781102z"/>
   </clipPath>
 </defs>
 <g id="Layer_x0020_1">
  <metadata id="CorelCorpID_0Corel-Layer"/>
  <rect class="fil0" x="0.715831" y="1.05963" width="4.90167" height="2.88406"/>
  <path class="fil1" d="M1.25959 2.60735m0.567583 -0.271402c0.00557874,-0.00647638 0.0120512,-0.00982283 0.0189685,-0.00982283 0.000893701,0 0.00379528,0.000448819 0.00870472,0.00111811 0.00513386,0.000669291 0.00982283,0.00401575 0.014063,0.0100433 0.00223228,0.00312205 0.00334646,0.00602362 0.00334646,0.00914961 0,0.00446457 -0.00156299,0.00870472 -0.00446457,0.0131693 -0.0546811,0.0653937 -0.122307,0.111819 -0.203551,0.139272 -0.00379528,0.00133858 -0.00781102,0.00267717 -0.0116063,0.00446457l-0.00133858 0c0.00267717,0.0113819 0.00424016,0.0223189 0.00513386,0.032811 0.000444882,0.00602362 0.000669291,0.0122756 0.000669291,0.0189685 0,0.0299094 -0.00468898,0.0624961 -0.014063,0.097315 -0.00937402,0.034815 -0.0261102,0.0658425 -0.0506614,0.0928465 -0.023437,0.0236575 -0.0537913,0.0412913 -0.0908425,0.0528976 -0.029685,0.00914961 -0.058252,0.0138386 -0.0857047,0.0138386 -0.00647244,0 -0.0127244,-0.000224409 -0.0189724,-0.000669291 -0.0301299,-0.00312598 -0.0551299,-0.0142874 -0.0752165,-0.0339252 -0.0191929,-0.0183031 -0.0287913,-0.042185 -0.0287913,-0.0714252l0 -0.00379134c0.00312598,-0.0323622 0.0158465,-0.0607087 0.0379409,-0.0850394 0.0223228,-0.0243268 0.0464252,-0.0446378 0.0727638,-0.0609291 0.0540118,-0.0316929 0.112043,-0.0569173 0.174535,-0.0756654 0.00290157,-0.000889764 0.00602756,-0.00200787 0.00915354,-0.00334646 -0.00580315,-0.0191929 -0.0147323,-0.0370512 -0.0267835,-0.0535669 -0.0200906,-0.0249961 -0.0435236,-0.0419606 -0.0700827,-0.0511102 -0.0169646,0.00825591 -0.034374,0.0125 -0.0522283,0.0125l-0.00267717 0c-0.021874,-0.00223228 -0.0357126,-0.0118307 -0.0417402,-0.0287953 -0.00223228,-0.00602362 -0.00334646,-0.0120512 -0.00334646,-0.0176299 0,-0.0113819 0.00401575,-0.0225433 0.0118307,-0.0334803 0.0147283,-0.0160709 0.0316929,-0.0292362 0.0508858,-0.0397283 0.014063,-0.00781102 0.0270079,-0.0167402 0.0392835,-0.0267835 0.0292362,-0.0263346 0.0533425,-0.0562441 0.0725394,-0.0903937 0.0227638,-0.0399488 0.0350394,-0.0828031 0.0372717,-0.12811l0 -0.00781496c0,-0.0160669 -0.00245669,-0.0343701 -0.00714173,-0.0549055 -0.00490945,-0.0205315 -0.014063,-0.0368268 -0.0274528,-0.0491024 -0.00692126,-0.00647244 -0.0154016,-0.0098189 -0.0254449,-0.0098189 -0.00914961,0 -0.0194173,0.00290157 -0.0307992,0.00848031 -0.0401772,0.0241063 -0.0687441,0.0580315 -0.0857087,0.101776 -0.0169606,0.043748 -0.0294606,0.0879409 -0.0372717,0.132354 -0.000448819,0.00401969 -0.00111811,0.00781102 -0.00200787,0.0118307 -0.0125,0.0584764 -0.0189724,0.116728 -0.0189724,0.175205 0,0.0415157 0.00312598,0.0828071 0.00914961,0.124319 0,0.00133858 0.000224409,0.00223228 0.000669291,0.00312598 0.0026811,0.0122756 0.00401969,0.0245512 0.00401969,0.0366024 0,0.00959843 -0.000893701,0.0191969 -0.0026811,0.0287953 -0.00691732,0.0258898 -0.0191929,0.0401732 -0.0366024,0.0432992 -0.00223228,0.000444882 -0.00424016,0.000669291 -0.00647244,0.000669291 -0.0145079,0 -0.0276772,-0.00892913 -0.0399528,-0.0263386 -0.00914961,-0.0147283 -0.015622,-0.0314685 -0.0191929,-0.0502165 -0.00379528,-0.018748 -0.00625197,-0.0372756 -0.00759055,-0.0555748 -0.000444882,-0.00401969 -0.000889764,-0.00759055 -0.00133858,-0.0111614 -0.00513386,-0.0511102 -0.00781102,-0.102 -0.00781102,-0.15311 0,-0.0229882 0.000444882,-0.0459803 0.00133858,-0.0685197 0.00223228,-0.0611575 0.00714173,-0.122087 0.0149528,-0.183244 0.00134252,-0.00870472 0.00245669,-0.0176299 0.00335039,-0.0267835 0.00178346,-0.0252205 0.00580315,-0.0497717 0.0125,-0.073878 0.00111417,-0.00825591 0.00290157,-0.0162913 0.00512992,-0.0241024 0.00357087,-0.0104921 0.0100472,-0.0160709 0.0196417,-0.0169646l0.0026811 0c0.00825591,0 0.0151772,0.00357087 0.0207559,0.0111614 0.00669685,0.00959843 0.0107126,0.020311 0.0125,0.0325866 0.00178346,0.0122756 0.00290157,0.0243268 0.00334646,0.0366024 0,0.00557874 0.000224409,0.010937 0.000669291,0.015622 0.00245669,0.035937 0.00468504,0.0714252 0.00647244,0.106689 0.000444882,0.00513386 0.000893701,0.0107126 0.00133858,0.0162913 0.00513386,-0.0225394 0.0113819,-0.0448622 0.0183031,-0.0667323 0.0125,-0.0412913 0.0372717,-0.0834764 0.073878,-0.126106 0.0278976,-0.0328071 0.0595906,-0.0491024 0.0955236,-0.0491024 0.0107165,0 0.0220984,0.00156299 0.0339252,0.00468898 0.021874,0.00914961 0.0410709,0.0241024 0.0582559,0.0446378 0.0169606,0.0207559 0.028122,0.0415118 0.0332559,0.0624921 0.00557874,0.0292402 0.00848031,0.0587008 0.00848031,0.0883858 0,0.0325866 -0.00334646,0.0653976 -0.0104882,0.0979803 -0.0183031,0.0580315 -0.0502205,0.108697 -0.0959764,0.152445 -0.0122756,0.0129449 -0.0261102,0.0261102 -0.0412874,0.0392795 0.0439685,0.0270079 0.077,0.0662874 0.0986496,0.118295 0.0754409,-0.0232126 0.139051,-0.0645039 0.190386,-0.124319zm-0.235472 0.25578c0.0035748,-0.0174094 0.00535827,-0.0352677 0.00535827,-0.053122 0,-0.00513386 -0.000224409,-0.0104882 -0.000669291,-0.015622 -0.0807953,0.0205315 -0.151102,0.056689 -0.211142,0.108472 -0.0122756,0.0122756 -0.0214252,0.0270039 -0.0276772,0.0439685 -0.00334646,0.00959843 -0.00512992,0.0185236 -0.00512992,0.0267835 0,0.00691732 0.00178346,0.0153976 0.00557874,0.0254449 0.00379528,0.0100433 0.0167402,0.0169606 0.0388346,0.0209803 0.00446457,0.000444882 0.00892913,0.000669291 0.0138386,0.000669291 0.0100433,0 0.0216496,-0.00156299 0.0350394,-0.00468898 0.0131693,-0.00290157 0.026563,-0.00691732 0.0401772,-0.0118307 0.0618228,-0.0243268 0.0970906,-0.0714213 0.105791,-0.141055zm0.22565 0.015622m0.196858 -0.197528c0.00223228,-0.00379134 0.00513386,-0.00602362 0.00870472,-0.00624803 0.00379134,-0.000224409 0.0073622,0.000893701 0.0109331,0.00312598 0.00245669,0.00155906 0.00379528,0.00424016 0.00379528,0.00781102l0 0.00133858c-0.00557874,0.0553504 -0.0205315,0.107579 -0.0450827,0.156906 -0.00870472,0.018748 -0.0189724,0.0368268 -0.0310276,0.0544606 -0.0120512,0.0176299 -0.0274528,0.0314685 -0.0462008,0.0415118 -0.00781102,0.00357087 -0.0153976,0.00535827 -0.0227638,0.00535827 -0.0122756,0 -0.0252205,-0.00647244 -0.0392835,-0.0194173 -0.0138386,-0.0127244 -0.0245512,-0.0285709 -0.0319173,-0.0473189 -0.0145039,-0.0366024 -0.0234331,-0.0745472 -0.0270039,-0.113827 -0.000224409,-0.00134252 -0.000448819,-0.00245669 -0.000448819,-0.00312598 0,-0.0017874 -0.000220472,-0.00357087 -0.000669291,-0.00535827 -0.00312205,-0.015622 -0.00468504,-0.0316929 -0.00468504,-0.0484331 0,-0.00825591 0.000444882,-0.0165157 0.00133858,-0.0247717 0,-0.0330354 0.00156299,-0.0665118 0.00446457,-0.0999921 0.00714173,-0.0790118 0.0216496,-0.156461 0.0439685,-0.232791 0.0116063,-0.0419606 0.0249961,-0.0828031 0.0397283,-0.12298l0.00133858 -0.00401575c0.00357087,-0.0107126 0.00759055,-0.0189724 0.0122756,-0.0247756 0.00446457,-0.00557874 0.0127244,-0.0102677 0.0243268,-0.0136142l0.00201181 -0.000669291c0.000889764,0 0.00200787,0.000220472 0.00334646,0.000669291 0.00133858,0.000444882 0.00245669,0.00111417 0.00312598,0.00245276 0.0089252,0.0118307 0.0131693,0.0258937 0.0131693,0.0419606 0,0.00290157 -0.000673228,0.0104921 -0.00223228,0.0220984 -0.00156299,0.0118268 -0.00535827,0.0276772 -0.0113858,0.0477638 -0.00401575,0.0140591 -0.00714173,0.0267835 -0.00914961,0.0386102 -0.00914961,0.0584764 -0.0160709,0.117177 -0.020311,0.175878 -0.000893701,0.0127205 -0.00200787,0.0252205 -0.00334646,0.0372717 -0.00513386,0.0383898 -0.00781102,0.0776732 -0.00781102,0.117846 0,0.0381654 0.00245276,0.0772244 0.00714173,0.116953 0.000889764,0.00312598 0.00178346,0.00714567 0.00267717,0.0125 0.0017874,0.0120551 0.00468898,0.025 0.00870472,0.0383898 0.00424016,0.0136142 0.010937,0.0216496 0.0200866,0.0243268l0.00245669 0c0.00758661,0 0.0145079,-0.00424016 0.0209803,-0.0124961 0.00669291,-0.00825984 0.0122756,-0.0180787 0.0169606,-0.029685 0.00490945,-0.0116063 0.00870472,-0.0216496 0.0118307,-0.0303543 0.000893701,-0.00357087 0.00178346,-0.00647244 0.00267717,-0.00848031l0.0104921 -0.0301339c0.00691732,-0.0241024 0.0158465,-0.0468701 0.0267835,-0.0687441zm-0.00602756 0.197528m0.341264 -0.216496c0.00401575,0.00267717 0.00290157,0.0129449 -0.00357087,0.0310236 -0.00625197,0.0180787 -0.0169646,0.0359331 -0.0323622,0.0533425 -0.0151772,0.0174094 -0.0332559,0.0294606 -0.0542362,0.0359331 -0.00602756,0.0479882 -0.0216496,0.0897244 -0.0464252,0.124988 -0.018748,0.0261142 -0.045311,0.0392835 -0.0796811,0.0392835 -0.0118307,0 -0.0245512,-0.00156299 -0.0379409,-0.00468898 -0.0629409,-0.0205315 -0.102224,-0.0586969 -0.118516,-0.114945 -0.00468898,-0.0167362 -0.00714567,-0.0330315 -0.00714567,-0.0491024 0,-0.0388346 0.0136181,-0.077 0.040622,-0.114496 0.00223228,-0.0026811 0.00446457,-0.00468898 0.00714173,-0.00647244 -0.00357087,-0.0127244 -0.00513386,-0.0252205 -0.00513386,-0.0379449 0,-0.0160709 0.00424409,-0.0348189 0.0127244,-0.0560197 0.00848031,-0.0209803 0.0283465,-0.0334803 0.059815,-0.0374961l0.0098189 0c0.0417402,0 0.0761102,0.0107126 0.102669,0.0321378 0.0138386,0.00982283 0.0254449,0.0214252 0.0345984,0.0345945 0.018748,0.0283465 0.0292362,0.0593701 0.0314685,0.0935197 0.00111417,0.0113819 0.0017874,0.0223189 0.0017874,0.0332559l0 0.00848031 -0.00111811 0.0169646c0.0133937,-0.00602756 0.0256693,-0.0154016 0.0366024,-0.028122 0.0102677,-0.0120551 0.0169646,-0.0227677 0.0194213,-0.0319173 0.00267717,-0.00781496 0.00714173,-0.0151772 0.0131654,-0.0223189 0.0017874,-0.0017874 0.00401969,-0.00245669 0.00647244,-0.00245669 0.000448819,0 0.00156299,0 0.00312598,0 0.00133858,0 0.00379528,0.000669291 0.00669685,0.00245669zm-0.192169 -0.0901732c-0.00870472,-0.00357087 -0.017189,-0.00513386 -0.0254449,-0.00513386 -0.0165157,0 -0.0319173,0.00647244 -0.0457559,0.0194213 -0.0127205,0.0158465 -0.0189724,0.0328071 -0.0189724,0.0511102 0,0.00914961 0.00156299,0.0185236 0.00446457,0.028122 0.00401969,0.0113819 0.00937402,0.0216496 0.0162953,0.0307992 0.0263346,0.0357126 0.061378,0.0553543 0.105346,0.0587008l0.00781102 0c0.0100433,0 0.0198661,-0.000669291 0.0294606,-0.00200787 0.00134252,-0.0138386 0.00201181,-0.0267835 0.00201181,-0.0383898 0,-0.00959843 -0.000448819,-0.018748 -0.00134252,-0.0274528 -0.00267717,-0.0401732 -0.0182992,-0.0736535 -0.0470906,-0.100213 -0.00825984,-0.00647244 -0.017189,-0.0113858 -0.0267835,-0.0149567zm-0.0633898 0.278547c0.015626,0.0265591 0.0330354,0.0399528 0.0522283,0.0399528 0.0160709,0 0.0332559,-0.00892913 0.0511102,-0.0267835l0.00134252 -0.00133858c0,-0.000448819 0.000220472,-0.000893701 0.000444882,-0.00134252 0.0122756,-0.0214252 0.0209803,-0.0453071 0.0263386,-0.0718661 -0.0113858,0.00156299 -0.0214291,0.00245276 -0.0301339,0.00245276 -0.00401575,0 -0.00736614,-0.000220472 -0.0104882,-0.000669291 -0.0383898,-0.00424016 -0.0745472,-0.0194173 -0.108472,-0.045752 -0.000448819,0.00624803 -0.000669291,0.0122756 -0.000669291,0.0182992 0,0.029685 0.00602362,0.0587008 0.0182992,0.0870472zm0.230783 0.028122m0.380543 -0.173197c0.00491339,-0.0196417 0.00915354,-0.029685 0.0131693,-0.0301339l0.0017874 0c0.00312205,0 0.00580315,0.00111811 0.00803543,0.00335039 0.00200787,0.00156299 0.00312205,0.00401575 0.00312205,0.00714173l-0.000669291 0.00379528c-0.00379528,0.0278976 -0.0104882,0.0546811 -0.0196417,0.0805709 -0.015622,0.0334803 -0.0374961,0.0629409 -0.0658386,0.0881614l-0.00401969 0.00401969c-0.00178346,0.00133858 -0.00401575,0.00290157 -0.00647244,0.00512992 -0.00267717,0.0017874 -0.00535827,0.00379528 -0.00781102,0.00625197 -0.00267717,0.00245276 -0.00446457,0.00446457 -0.00535827,0.00624803l0 0.00647244c0.000893701,0.00915354 0.00133858,0.0180787 0.00133858,0.0267835 0.0017874,0.0258898 0.0026811,0.0513346 0.0026811,0.0765551 0,0.0915118 -0.0118307,0.181906 -0.0354882,0.271406 -0.0116063,0.0388346 -0.0303543,0.0740984 -0.0560236,0.10624 -0.0258898,0.0321378 -0.059815,0.0511102 -0.10222,0.0571378 -0.00379528,0.000444882 -0.00781102,0.000669291 -0.0116063,0.000669291 -0.0305787,0 -0.0582559,-0.00959843 -0.0830276,-0.0287913 -0.025,-0.0191969 -0.0381654,-0.0466496 -0.0399528,-0.0823622 0,-0.00178346 0.000224409,-0.00312205 0.000669291,-0.00446063 -0.00267717,-0.010937 -0.00401575,-0.0207598 -0.00401575,-0.0294646 0.00312205,-0.0749921 0.0292362,-0.14128 0.078563,-0.198862 0.0435236,-0.0580315 0.0924016,-0.111374 0.146413,-0.160256l-0.00133858 -0.12878c0,-0.0100472 -0.000224409,-0.020311 -0.000669291,-0.0305787l-0.000669291 0.000669291 0 -0.00200787c0.000444882,-0.000448819 0.000669291,-0.000893701 0.000669291,-0.00133858 -0.000444882,-0.00535827 -0.000669291,-0.0104921 -0.000669291,-0.015626 -0.0243268,0.0557992 -0.0591457,0.0984291 -0.104453,0.128114 -0.0118307,0.00468504 -0.0232126,0.00714173 -0.0341496,0.00714173 -0.0200866,0 -0.0401772,-0.0111614 -0.0607087,-0.0332559 -0.0205354,-0.0223189 -0.0308031,-0.0493268 -0.0308031,-0.0812441 0.000448819,-0.0408425 0.00937402,-0.0814646 0.026563,-0.121862 0.017185,-0.0403976 0.0450827,-0.0694134 0.0839213,-0.0872677 0.0127205,-0.00490945 0.0245512,-0.00714173 0.0352638,-0.00714173 0.0140591,0 0.028122,0.00557874 0.0421811,0.0169606 0.0142874,0.0113819 0.0274528,0.0290157 0.0397283,0.0528976 0.00134252,-0.0174094 0.00401969,-0.0345945 0.00848425,-0.0515591 0.00334646,-0.0100433 0.0104882,-0.0158465 0.0209803,-0.017185 0.00155906,-0.000444882 0.00312205,-0.000669291 0.00446063,-0.000669291 0.00781496,0 0.0142874,0.00424016 0.0189724,0.0125 0.0205354,0.0453071 0.0325866,0.0932953 0.035937,0.143961 0.00133858,0.0109331 0.00267717,0.0212008 0.00401575,0.0312441 0,0.0017874 0.000224409,0.00379528 0.000669291,0.00602756 0.00557874,0.0252205 0.00848031,0.0575827 0.00848031,0.097311 0.0308031,-0.0243268 0.0524528,-0.0479843 0.0642795,-0.0705276 0.0120551,-0.0227677 0.0205354,-0.043748 0.0252205,-0.0633858zm-0.232787 0.0470906c0.0104882,-0.0162913 0.0200866,-0.0325827 0.0287913,-0.0491024l0.0118268 -0.0209803 0 -0.0417362c-0.00781102,-0.0131693 -0.017185,-0.0247756 -0.028122,-0.0348189 -0.00736614,-0.00691732 -0.015622,-0.0104882 -0.0243268,-0.0104882 -0.00379528,0 -0.00803543,0.000669291 -0.0122756,0.00200787 -0.0131693,0.00580315 -0.0223189,0.0147323 -0.0278976,0.0272283 -0.00535827,0.0122756 -0.00959843,0.0252244 -0.0127244,0.0381693 -0.000444882,0.00223228 -0.000893701,0.00424016 -0.00133858,0.00602362 -0.0100433,0.0395079 -0.0151772,0.080126 -0.015622,0.121417l0 0.00468898c0,0.0160709 0.00401575,0.0241024 0.0124961,0.0241024 0.00602756,0 0.0145079,-0.00446063 0.0254449,-0.0136142 0.00825984,-0.00647244 0.0162953,-0.0151772 0.0241063,-0.0254409 0.00781102,-0.0104921 0.0145079,-0.0196417 0.0196417,-0.0274567zm0.0444134 0.51848c0.00714173,-0.0366024 0.0104921,-0.0740984 0.0104921,-0.112488 0,-0.021874 -0.00111811,-0.0439685 -0.00312598,-0.0667362 -0.00133858,-0.0196417 -0.00223228,-0.0388346 -0.00267717,-0.0575827 -0.000448819,-0.0151772 -0.000893701,-0.0305787 -0.00134252,-0.0464252l0 -0.020311c-0.00557874,0.00580315 -0.0113819,0.0111614 -0.0169606,0.0165157 -0.0540118,0.0517835 -0.100213,0.109591 -0.138602,0.173201 -0.0214291,0.0366024 -0.0321417,0.072315 -0.0321417,0.107354 0,0.0357126 0.0111614,0.070752 0.0334803,0.105126 0.0129449,0.00624803 0.0258898,0.00914961 0.0383898,0.00914961 0.018748,0 0.0372717,-0.00602756 0.0555748,-0.0183031 0.029685,-0.0225433 0.0486575,-0.0524488 0.0569134,-0.0895zm0.175878 -0.392374m0.380543 -0.173197c0.00491339,-0.0196417 0.00915354,-0.029685 0.0131693,-0.0301339l0.0017874 0c0.00312205,0 0.00580315,0.00111811 0.00803543,0.00335039 0.00200787,0.00156299 0.00312205,0.00401575 0.00312205,0.00714173l-0.000669291 0.00379528c-0.00379528,0.0278976 -0.0104882,0.0546811 -0.0196417,0.0805709 -0.015622,0.0334803 -0.0374961,0.0629409 -0.0658386,0.0881614l-0.00401969 0.00401969c-0.00178346,0.00133858 -0.00401575,0.00290157 -0.00647244,0.00512992 -0.00267717,0.0017874 -0.00535827,0.00379528 -0.00781102,0.00625197 -0.00267717,0.00245276 -0.00446457,0.00446457 -0.00535827,0.00624803l0 0.00647244c0.000893701,0.00915354 0.00133858,0.0180787 0.00133858,0.0267835 0.0017874,0.0258898 0.0026811,0.0513346 0.0026811,0.0765551 0,0.0915118 -0.0118307,0.181906 -0.0354882,0.271406 -0.0116063,0.0388346 -0.0303543,0.0740984 -0.0560236,0.10624 -0.0258898,0.0321378 -0.059815,0.0511102 -0.10222,0.0571378 -0.00379528,0.000444882 -0.00781102,0.000669291 -0.0116063,0.000669291 -0.0305787,0 -0.0582559,-0.00959843 -0.0830276,-0.0287913 -0.025,-0.0191969 -0.0381654,-0.0466496 -0.0399528,-0.0823622 0,-0.00178346 0.000224409,-0.00312205 0.000669291,-0.00446063 -0.00267717,-0.010937 -0.00401575,-0.0207598 -0.00401575,-0.0294646 0.00312205,-0.0749921 0.0292362,-0.14128 0.078563,-0.198862 0.0435236,-0.0580315 0.0924016,-0.111374 0.146413,-0.160256l-0.00133858 -0.12878c0,-0.0100472 -0.000224409,-0.020311 -0.000669291,-0.0305787l-0.000669291 0.000669291 0 -0.00200787c0.000444882,-0.000448819 0.000669291,-0.000893701 0.000669291,-0.00133858 -0.000444882,-0.00535827 -0.000669291,-0.0104921 -0.000669291,-0.015626 -0.0243268,0.0557992 -0.0591457,0.0984291 -0.104453,0.128114 -0.0118307,0.00468504 -0.0232126,0.00714173 -0.0341496,0.00714173 -0.0200866,0 -0.0401772,-0.0111614 -0.0607087,-0.0332559 -0.0205354,-0.0223189 -0.0308031,-0.0493268 -0.0308031,-0.0812441 0.000448819,-0.0408425 0.00937402,-0.0814646 0.026563,-0.121862 0.017185,-0.0403976 0.0450827,-0.0694134 0.0839213,-0.0872677 0.0127205,-0.00490945 0.0245512,-0.00714173 0.0352638,-0.00714173 0.0140591,0 0.028122,0.00557874 0.0421811,0.0169606 0.0142874,0.0113819 0.0274528,0.0290157 0.0397283,0.0528976 0.00134252,-0.0174094 0.00401969,-0.0345945 0.00848425,-0.0515591 0.00334646,-0.0100433 0.0104882,-0.0158465 0.0209803,-0.017185 0.00155906,-0.000444882 0.00312205,-0.000669291 0.00446063,-0.000669291 0.00781496,0 0.0142874,0.00424016 0.0189724,0.0125 0.0205354,0.0453071 0.0325866,0.0932953 0.035937,0.143961 0.00133858,0.0109331 0.00267717,0.0212008 0.00401575,0.0312441 0,0.0017874 0.000224409,0.00379528 0.000669291,0.00602756 0.00557874,0.0252205 0.00848031,0.0575827 0.00848031,0.097311 0.0308031,-0.0243268 0.0524528,-0.0479843 0.0642795,-0.0705276 0.0120551,-0.0227677 0.0205354,-0.043748 0.0252205,-0.0633858zm-0.232787 0.0470906c0.0104882,-0.0162913 0.0200866,-0.0325827 0.0287913,-0.0491024l0.0118268 -0.0209803 0 -0.0417362c-0.00781102,-0.0131693 -0.017185,-0.0247756 -0.028122,-0.0348189 -0.00736614,-0.00691732 -0.015622,-0.0104882 -0.0243268,-0.0104882 -0.00379528,0 -0.00803543,0.000669291 -0.0122756,0.00200787 -0.0131693,0.00580315 -0.0223189,0.0147323 -0.0278976,0.0272283 -0.00535827,0.0122756 -0.00959843,0.0252244 -0.0127244,0.0381693 -0.000444882,0.00223228 -0.000893701,0.00424016 -0.00133858,0.00602362 -0.0100433,0.0395079 -0.0151772,0.080126 -0.015622,0.121417l0 0.00468898c0,0.0160709 0.00401575,0.0241024 0.0124961,0.0241024 0.00602756,0 0.0145079,-0.00446063 0.0254449,-0.0136142 0.00825984,-0.00647244 0.0162953,-0.0151772 0.0241063,-0.0254409 0.00781102,-0.0104921 0.0145079,-0.0196417 0.0196417,-0.0274567zm0.0444134 0.51848c0.00714173,-0.0366024 0.0104921,-0.0740984 0.0104921,-0.112488 0,-0.021874 -0.00111811,-0.0439685 -0.00312598,-0.0667362 -0.00133858,-0.0196417 -0.00223228,-0.0388346 -0.00267717,-0.0575827 -0.000448819,-0.0151772 -0.000893701,-0.0305787 -0.00134252,-0.0464252l0 -0.020311c-0.00557874,0.00580315 -0.0113819,0.0111614 -0.0169606,0.0165157 -0.0540118,0.0517835 -0.100213,0.109591 -0.138602,0.173201 -0.0214291,0.0366024 -0.0321417,0.072315 -0.0321417,0.107354 0,0.0357126 0.0111614,0.070752 0.0334803,0.105126 0.0129449,0.00624803 0.0258898,0.00914961 0.0383898,0.00914961 0.018748,0 0.0372717,-0.00602756 0.0555748,-0.0183031 0.029685,-0.0225433 0.0486575,-0.0524488 0.0569134,-0.0895zm0.175878 -0.392374m0.331441 -0.213819c0.0026811,-0.00133858 0.00513386,-0.00200787 0.00736614,-0.00200787 0.00245669,0 0.00490945,0.000889764 0.00714173,0.00267717 0.00290157,0.00267717 0.00156299,0.0185236 -0.00424016,0.0479882 -0.00602362,0.0294606 -0.0207559,0.0680709 -0.0441929,0.116059 -0.0234331,0.0479882 -0.058252,0.081689 -0.104008,0.101331 -0.0214252,0.00758661 -0.0419606,0.0111575 -0.0620472,0.0111575 -0.0243268,0 -0.0524488,-0.00758661 -0.0843661,-0.0232126 -0.0319173,-0.0153976 -0.0562441,-0.0464213 -0.0732087,-0.0930709 -0.00647244,-0.0236575 -0.0098189,-0.0466457 -0.0098189,-0.0694134 0,-0.0305748 0.00557874,-0.0604843 0.0169606,-0.0901693 0.00825984,-0.021874 0.0207598,-0.0453071 0.0377205,-0.070752 0.0167402,-0.0252205 0.0357126,-0.0432992 0.0571378,-0.0542362 0.0169646,-0.00602756 0.0321417,-0.00914961 0.0457559,-0.00914961 0.0265591,0 0.045752,0.0127205 0.0575827,0.0379409 0.00914961,0.0196417 0.0136142,0.040622 0.0136142,0.0627165 0,0.0209803 -0.00624803,0.0495512 -0.0189724,0.0857087 -0.0124961,0.0361575 -0.0444134,0.0611535 -0.0953031,0.0745472 0.000448819,0.000444882 0.000669291,0.000889764 0.000669291,0.00133858 0,0.000893701 0,0.00178346 0.000448819,0.00267717 0.0113819,0.0392835 0.0321378,0.0660669 0.0622717,0.0803504 0.00959449,0.00446457 0.0194173,0.00647244 0.0294606,0.00647244 0.020311,0 0.0412913,-0.00982283 0.0627165,-0.0292402 0.0397283,-0.0475394 0.0720906,-0.110701 0.097311,-0.189713zm-0.22163 -0.032811c-0.0205354,0.035937 -0.0321378,0.0745472 -0.0352638,0.115839 0.0287913,-0.00825984 0.0522283,-0.0252205 0.0705276,-0.0508898 0.00959843,-0.0153976 0.0160709,-0.0323622 0.0189724,-0.0511102 0.000893701,-0.00513386 0.00133858,-0.0102677 0.00133858,-0.0149528 0,-0.0131693 -0.00245276,-0.0258898 -0.00781102,-0.0379449 -0.00424016,-0.00223228 -0.00825984,-0.00334646 -0.0118307,-0.00334646 -0.00513386,0 -0.0104882,0.00290157 -0.0158465,0.00892913 -0.00557874,0.00580315 -0.010937,0.0145079 -0.0160709,0.0256654l-0.00401575 0.00781102zm0.210697 0.24663m0.25578 -0.203331c0.00111811,-0.00535433 0.00401969,-0.00825591 0.00848031,-0.00914961l0.0017874 0c0.00312598,0 0.00647244,0.00111417 0.0098189,0.00312598 0.0026811,0.00267717 0.00401969,0.00580315 0.00401969,0.00937402l0 0.00312205c-0.00401969,0.0245512 -0.0138386,0.0600394 -0.029685,0.106689 -0.0160709,0.0466457 -0.0372756,0.0857047 -0.0638346,0.117622 -0.0169606,0.0200866 -0.0357087,0.0301299 -0.0562441,0.0301299 -0.0118307,0 -0.0243268,-0.00357087 -0.0379449,-0.0104882 -0.0247717,-0.0174094 -0.0377165,-0.042185 -0.0386102,-0.073878l0 -0.0104882c0,-0.0279016 0.00312598,-0.0535669 0.00914961,-0.0772283 0.00357087,-0.0133898 0.00759055,-0.0270039 0.0125,-0.0403976 0.00691732,-0.0196378 0.0120512,-0.0395039 0.0149528,-0.0595906l0 -0.00401969c0,-0.0138386 -0.00490945,-0.0241024 -0.0149528,-0.0310236 -0.0100433,-0.00669291 -0.021874,-0.0118268 -0.0352638,-0.0153976 -0.00714173,-0.00201181 -0.0136142,-0.00424409 -0.0196417,-0.00647244l0 0.000669291c0.00468504,0.0127205 0.00714173,0.0265591 0.00714173,0.0419606 0,0.00914961 -0.000893701,0.0189685 -0.00267717,0.0292362 -0.00245669,0.00914961 -0.00803543,0.0138386 -0.0162953,0.0138386l-0.00334646 0c-0.00290157,-0.000893701 -0.00468898,-0.00334646 -0.00513386,-0.00714173 -0.000444882,-0.00223228 -0.000669291,-0.00424016 -0.000669291,-0.00602756 0,-0.00156299 0.000224409,-0.00312598 0.000669291,-0.00446457 0.00223228,-0.00959449 0.00334646,-0.0176299 0.00357087,-0.0238819 0.000224409,-0.00624803 -0.000224409,-0.0136142 -0.00156299,-0.0218701 -0.00178346,-0.00736614 -0.00312205,-0.0131693 -0.00401575,-0.0169646 -0.000893701,-0.00223228 -0.00156299,-0.00446457 -0.00200787,-0.00669685 -0.000448819,-0.000889764 -0.000673228,-0.00155906 -0.000673228,-0.00178346 -0.000220472,-0.000893701 -0.000444882,-0.0017874 -0.000444882,-0.00267717 -0.00133858,-0.00401969 -0.00267717,-0.00803543 -0.00401575,-0.0125l0 -0.000669291c-0.00133858,-0.000893701 -0.00245669,-0.0017874 -0.00335039,-0.0026811 -0.000889764,-0.000669291 -0.00156299,-0.00133858 -0.00245276,-0.00178346 -0.00491339,-0.00401575 -0.00892913,-0.00848031 -0.0125,-0.0138386 -0.00267717,-0.00468504 -0.00401575,-0.0100433 -0.00401575,-0.015622 0,-0.000893701 0.000220472,-0.00312598 0.000444882,-0.00692126 0.000224409,-0.00357087 0.00290157,-0.00781102 0.00803543,-0.0120512 0.00446457,-0.00267717 0.00848031,-0.00401575 0.0118268,-0.00401575 0.0035748,0 0.00669685,0.00133858 0.00982283,0.00401575 0.00535433,0.00468504 0.00870472,0.0100433 0.0104882,0.015622 0.0017874,0.00580315 0.0026811,0.0129449 0.0026811,0.0216496 0.00178346,0.000893701 0.00401575,0.00201181 0.00714173,0.00335039 0.00312205,0.00111417 0.00580315,0.00223228 0.00848031,0.00312205 0.00267717,0.000893701 0.00424016,0.00134252 0.00468898,0.00134252 0.00557874,0.00133858 0.0113819,0.00245276 0.0176299,0.00334646 0.00290157,0.000444882 0.00580315,0.000893701 0.00848031,0.00133858 0.0147323,0.00200787 0.029685,0.00490945 0.0444173,0.00848031 0.0319173,0.0107165 0.0502165,0.0310236 0.0549055,0.0607087 0.00223228,0.0136181 0.00334646,0.0267835 0.00334646,0.0399528 0,0.0160709 -0.00156299,0.0319173 -0.00468504,0.0477638 -0.000448819,0.00379528 -0.00156299,0.0098189 -0.00312598,0.0176339 -0.00312598,0.0129449 -0.00624803,0.0283425 -0.00914961,0.045752 -0.00133858,0.00915354 -0.00200787,0.0178583 -0.00200787,0.0261142 0,0.00647244 0.000444882,0.0129449 0.00133858,0.0189724 0.00200787,0.0122756 0.00870472,0.0183031 0.0196417,0.0183031l0.00111417 0c0.00223228,-0.000448819 0.00580315,-0.00401969 0.010937,-0.0107165 0.00490945,-0.00691732 0.0098189,-0.0142835 0.0147283,-0.0223189 0.00468898,-0.00803543 0.00870472,-0.0145079 0.0116063,-0.0191929 0.000448819,-0.00133858 0.00111811,-0.00223228 0.00201181,-0.00267717 0.0247717,-0.0435236 0.0424055,-0.0897244 0.0524488,-0.138606zm-0.000669291 0.203331m0.644807 -0.681409c0.00513386,-0.00602756 0.010937,-0.00914961 0.0176299,-0.00914961 0.00223228,0 0.00625197,0.000889764 0.0120551,0.00267717 0.00580315,0.00178346 0.0111575,0.00647244 0.0160669,0.0142835 0.00223228,0.00401575 0.00312598,0.00803543 0.00312598,0.0118307 0,0.00446457 -0.00133858,0.0089252 -0.00446457,0.0138386 -0.0151772,0.0200866 -0.0361575,0.0330315 -0.0627165,0.0390551 -0.0162913,0.00401969 -0.0319173,0.00602756 -0.0470945,0.00602756 -0.0100433,0 -0.0198622,-0.000893701 -0.0294606,-0.00267717 -0.00781102,-0.00133858 -0.0151772,-0.00312598 -0.0223189,-0.00513386 0.00357087,0.0274528 0.00535827,0.0542362 0.00535827,0.0803504 0,0.0174094 -0.000673228,0.0343701 -0.00201181,0.0511102 -0.00736614,0.107579 -0.0249961,0.213598 -0.0528976,0.317606 -0.0153976,0.0580276 -0.0339252,0.115165 -0.0555748,0.171409 -0.0149528,0.045311 -0.0395039,0.0903937 -0.073874,0.135256 -0.0254449,0.0332559 -0.056248,0.0497717 -0.0928504,0.0497717 -0.0136142,0 -0.0278976,-0.00223228 -0.0426299,-0.00647244 -0.0435236,-0.0200866 -0.0767795,-0.0540118 -0.0993228,-0.102 -0.0227638,-0.0479843 -0.0399488,-0.094185 -0.0517795,-0.138602 -0.00133858,-0.00401575 -0.00223228,-0.00781102 -0.00312598,-0.0111575 -0.0323622,-0.115614 -0.0508858,-0.233461 -0.0555748,-0.353764 -0.00178346,-0.0383898 -0.00267717,-0.077 -0.00267717,-0.115839 0,-0.0191929 0.000224409,-0.0383858 0.000669291,-0.0575827 0,-0.00870472 -0.000224409,-0.0178543 -0.000669291,-0.0274528 -0.000444882,-0.00647244 -0.000669291,-0.0127205 -0.000669291,-0.0189724 0,-0.0160669 0.00111417,-0.0339252 0.00334646,-0.0537874 0.00201181,-0.0198661 0.00915354,-0.0383898 0.0207598,-0.0553543 0.00446063,-0.00557874 0.0100433,-0.00937402 0.017185,-0.0111575 0.00111417,-0.000448819 0.00267717,-0.000669291 0.00446457,-0.000669291 0.00535433,0 0.0100433,0.00245276 0.0145079,0.00736614 0.015622,0.0212008 0.0252205,0.0466457 0.0285669,0.0758858 0.00357087,0.0265591 0.00535827,0.0531181 0.00535827,0.0796772l0 0.00915354c0,0.0191929 0.000444882,0.0368268 0.00133858,0.0528937 0.00557874,0.0854843 0.0149528,0.170524 0.028122,0.25511 0.0138386,0.0845906 0.0345945,0.167622 0.0620472,0.249087 0.00557874,0.0169606 0.0116063,0.0337008 0.0176339,0.0504409 0.0073622,0.0200866 0.0147283,0.0399528 0.0216496,0.0600394 0.00424016,0.0145079 0.0107126,0.0267835 0.0189685,0.0372717 0.00558268,0.00736614 0.0138386,0.0111614 0.0247756,0.0111614 0.00401969,0 0.00825984,-0.000444882 0.0131693,-0.00133858 0.0292362,-0.00870472 0.0511102,-0.0261142 0.0656181,-0.0520039 0.0147323,-0.0258898 0.0261142,-0.0533425 0.034374,-0.0819134l0.00914961 -0.0249961c0.0261142,-0.0718701 0.047315,-0.145079 0.0633858,-0.219622 0.0227677,-0.0767795 0.0339252,-0.153335 0.0339252,-0.229445 0,-0.0551299 -0.00580315,-0.110035 -0.0176299,-0.164941 -0.015626,-0.0142835 -0.028122,-0.0316929 -0.0372756,-0.0522244 -0.00156299,-0.0035748 -0.00245276,-0.00669685 -0.00245276,-0.00982283 0,-0.00357087 0.00133858,-0.00736614 0.00424016,-0.0118268 0.00267717,-0.00424409 0.00736614,-0.00736614 0.0140591,-0.00915354 0.00335039,-0.00424016 0.00759055,-0.00669685 0.0122756,-0.00714173l0.00201181 0c0.00446063,0 0.00848031,0.00200787 0.0124961,0.00580315 0.0125,0.0145079 0.0227677,0.0303543 0.0308031,0.0477638 0.0216496,0.0154016 0.0455315,0.0241063 0.0711969,0.0261142 0.00267717,0.000444882 0.00535827,0.000669291 0.00848031,0.000669291 0.021874,0 0.0412913,-0.00914961 0.0582559,-0.0274528zm-0.108697 0.681409m0.171413 -0.195516c0.000444882,-0.00513386 0.00267717,-0.00825984 0.00714173,-0.00915354l0.00200787 0c0.00335039,0 0.00692126,0.00133858 0.0107126,0.00401969 0.00379528,0.00245276 0.00558268,0.00647244 0.00558268,0.0116063 -0.000893701,0.0249961 -0.00602756,0.0604843 -0.015626,0.106909 -0.00959449,0.0464213 -0.0256654,0.0857047 -0.0477638,0.117398 -0.0145079,0.0205354 -0.0319173,0.0308031 -0.0524488,0.0308031 -0.0120512,0 -0.0252205,-0.00357087 -0.0390591,-0.0104921 -0.0167402,-0.00959843 -0.0285709,-0.0220945 -0.0361575,-0.0374961 -0.00736614,-0.015622 -0.0116063,-0.0319173 -0.0129449,-0.048878 -0.00401969,-0.0403976 -0.00602756,-0.0807992 -0.00602756,-0.120972 0,-0.0265591 0.000893701,-0.0531181 0.0026811,-0.0796811 0.000444882,-0.0196417 0.00401575,-0.0386102 0.0107126,-0.0569134 0.00691732,-0.0183031 0.0191929,-0.0319173 0.0370472,-0.040622 0.0026811,-0.00111417 0.00513386,-0.00178346 0.00781496,-0.00178346 0.00490945,0 0.00937402,0.00223228 0.0138346,0.00714173 0.010937,0.0138386 0.0174094,0.0290157 0.0196417,0.0450827 0.00111811,0.010937 0.0017874,0.021874 0.0017874,0.0325866 0,0.00580315 -0.000224409,0.0111614 -0.000669291,0.0165157l0 0.0640591c0,0.0303543 0.000220472,0.0611535 0.000669291,0.0921772l0 0.0104921c-0.000448819,0.00513386 -0.000669291,0.010937 -0.000669291,0.0169606 0,0.00312598 0.000220472,0.00781496 0.000444882,0.0142874 0.000224409,0.00669291 0.00200787,0.0131654 0.00557874,0.0196378 0.00335039,0.00669685 0.00959843,0.00982283 0.0183031,0.00982283l0.00200787 0c0.00245669,-0.000448819 0.00580315,-0.00401969 0.00982283,-0.0107126 0.00379134,-0.00669685 0.00781102,-0.0142874 0.0116063,-0.0223228 0.00401575,-0.0080315 0.00691732,-0.0145039 0.00848031,-0.0191929 0.000893701,-0.000893701 0.00133858,-0.00178346 0.00133858,-0.00267717 0.0196417,-0.0430787 0.0310236,-0.0892795 0.0341496,-0.138602zm-0.134142 -0.260913c0.0127244,0 0.0238819,0.00446063 0.0337047,0.0133898 0.0098189,0.00892913 0.0160709,0.0198661 0.0185236,0.0323622 0.000448819,0.00223228 0.000669291,0.00424016 0.000669291,0.00602756 0,0.00379528 -0.000669291,0.00825591 -0.00223228,0.0133898 -0.00156299,0.00491339 -0.00401575,0.00937402 -0.00758661,0.0133937 -0.00870472,0.00914961 -0.0189724,0.0136142 -0.0305787,0.0136142 -0.0131693,0 -0.0245512,-0.00446457 -0.0341496,-0.0133898 -0.00959449,-0.00892913 -0.015622,-0.0198661 -0.0182992,-0.0330354 -0.000448819,-0.00267717 -0.000669291,-0.00490945 -0.000669291,-0.00714173 0,-0.00357087 0.000669291,-0.00758661 0.00200787,-0.0120512 0.00133858,-0.00468898 0.00401575,-0.00915354 0.00781102,-0.0133937 0.00825984,-0.00870472 0.0185236,-0.0131654 0.0307992,-0.0131654zm0.133472 0.456429m0.196858 -0.197528c0.00223228,-0.00379134 0.00513386,-0.00602362 0.00870472,-0.00624803 0.00379134,-0.000224409 0.0073622,0.000893701 0.0109331,0.00312598 0.00245669,0.00155906 0.00379528,0.00424016 0.00379528,0.00781102l0 0.00133858c-0.00557874,0.0553504 -0.0205315,0.107579 -0.0450827,0.156906 -0.00870472,0.018748 -0.0189724,0.0368268 -0.0310276,0.0544606 -0.0120512,0.0176299 -0.0274528,0.0314685 -0.0462008,0.0415118 -0.00781102,0.00357087 -0.0153976,0.00535827 -0.0227638,0.00535827 -0.0122756,0 -0.0252205,-0.00647244 -0.0392835,-0.0194173 -0.0138386,-0.0127244 -0.0245512,-0.0285709 -0.0319173,-0.0473189 -0.0145039,-0.0366024 -0.0234331,-0.0745472 -0.0270039,-0.113827 -0.000224409,-0.00134252 -0.000448819,-0.00245669 -0.000448819,-0.00312598 0,-0.0017874 -0.000220472,-0.00357087 -0.000669291,-0.00535827 -0.00312205,-0.015622 -0.00468504,-0.0316929 -0.00468504,-0.0484331 0,-0.00825591 0.000444882,-0.0165157 0.00133858,-0.0247717 0,-0.0330354 0.00156299,-0.0665118 0.00446457,-0.0999921 0.00714173,-0.0790118 0.0216496,-0.156461 0.0439685,-0.232791 0.0116063,-0.0419606 0.0249961,-0.0828031 0.0397283,-0.12298l0.00133858 -0.00401575c0.00357087,-0.0107126 0.00759055,-0.0189724 0.0122756,-0.0247756 0.00446457,-0.00557874 0.0127244,-0.0102677 0.0243268,-0.0136142l0.00201181 -0.000669291c0.000889764,0 0.00200787,0.000220472 0.00334646,0.000669291 0.00133858,0.000444882 0.00245669,0.00111417 0.00312598,0.00245276 0.0089252,0.0118307 0.0131693,0.0258937 0.0131693,0.0419606 0,0.00290157 -0.000673228,0.0104921 -0.00223228,0.0220984 -0.00156299,0.0118268 -0.00535827,0.0276772 -0.0113858,0.0477638 -0.00401575,0.0140591 -0.00714173,0.0267835 -0.00914961,0.0386102 -0.00914961,0.0584764 -0.0160709,0.117177 -0.020311,0.175878 -0.000893701,0.0127205 -0.00200787,0.0252205 -0.00334646,0.0372717 -0.00513386,0.0383898 -0.00781102,0.0776732 -0.00781102,0.117846 0,0.0381654 0.00245276,0.0772244 0.00714173,0.116953 0.000889764,0.00312598 0.00178346,0.00714567 0.00267717,0.0125 0.0017874,0.0120551 0.00468898,0.025 0.00870472,0.0383898 0.00424016,0.0136142 0.010937,0.0216496 0.0200866,0.0243268l0.00245669 0c0.00758661,0 0.0145079,-0.00424016 0.0209803,-0.0124961 0.00669291,-0.00825984 0.0122756,-0.0180787 0.0169606,-0.029685 0.00490945,-0.0116063 0.00870472,-0.0216496 0.0118307,-0.0303543 0.000893701,-0.00357087 0.00178346,-0.00647244 0.00267717,-0.00848031l0.0104921 -0.0301339c0.00691732,-0.0241024 0.0158465,-0.0468701 0.0267835,-0.0687441zm-0.00602756 0.197528m0.196858 -0.197528c0.00223228,-0.00379134 0.00513386,-0.00602362 0.00870472,-0.00624803 0.00379134,-0.000224409 0.0073622,0.000893701 0.0109331,0.00312598 0.00245669,0.00155906 0.00379528,0.00424016 0.00379528,0.00781102l0 0.00133858c-0.00557874,0.0553504 -0.0205315,0.107579 -0.0450827,0.156906 -0.00870472,0.018748 -0.0189724,0.0368268 -0.0310276,0.0544606 -0.0120512,0.0176299 -0.0274528,0.0314685 -0.0462008,0.0415118 -0.00781102,0.00357087 -0.0153976,0.00535827 -0.0227638,0.00535827 -0.0122756,0 -0.0252205,-0.00647244 -0.0392835,-0.0194173 -0.0138386,-0.0127244 -0.0245512,-0.0285709 -0.0319173,-0.0473189 -0.0145039,-0.0366024 -0.0234331,-0.0745472 -0.0270039,-0.113827 -0.000224409,-0.00134252 -0.000448819,-0.00245669 -0.000448819,-0.00312598 0,-0.0017874 -0.000220472,-0.00357087 -0.000669291,-0.00535827 -0.00312205,-0.015622 -0.00468504,-0.0316929 -0.00468504,-0.0484331 0,-0.00825591 0.000444882,-0.0165157 0.00133858,-0.0247717 0,-0.0330354 0.00156299,-0.0665118 0.00446457,-0.0999921 0.00714173,-0.0790118 0.0216496,-0.156461 0.0439685,-0.232791 0.0116063,-0.0419606 0.0249961,-0.0828031 0.0397283,-0.12298l0.00133858 -0.00401575c0.00357087,-0.0107126 0.00759055,-0.0189724 0.0122756,-0.0247756 0.00446457,-0.00557874 0.0127244,-0.0102677 0.0243268,-0.0136142l0.00201181 -0.000669291c0.000889764,0 0.00200787,0.000220472 0.00334646,0.000669291 0.00133858,0.000444882 0.00245669,0.00111417 0.00312598,0.00245276 0.0089252,0.0118307 0.0131693,0.0258937 0.0131693,0.0419606 0,0.00290157 -0.000673228,0.0104921 -0.00223228,0.0220984 -0.00156299,0.0118268 -0.00535827,0.0276772 -0.0113858,0.0477638 -0.00401575,0.0140591 -0.00714173,0.0267835 -0.00914961,0.0386102 -0.00914961,0.0584764 -0.0160709,0.117177 -0.020311,0.175878 -0.000893701,0.0127205 -0.00200787,0.0252205 -0.00334646,0.0372717 -0.00513386,0.0383898 -0.00781102,0.0776732 -0.00781102,0.117846 0,0.0381654 0.00245276,0.0772244 0.00714173,0.116953 0.000889764,0.00312598 0.00178346,0.00714567 0.00267717,0.0125 0.0017874,0.0120551 0.00468898,0.025 0.00870472,0.0383898 0.00424016,0.0136142 0.010937,0.0216496 0.0200866,0.0243268l0.00245669 0c0.00758661,0 0.0145079,-0.00424016 0.0209803,-0.0124961 0.00669291,-0.00825984 0.0122756,-0.0180787 0.0169606,-0.029685 0.00490945,-0.0116063 0.00870472,-0.0216496 0.0118307,-0.0303543 0.000893701,-0.00357087 0.00178346,-0.00647244 0.00267717,-0.00848031l0.0104921 -0.0301339c0.00691732,-0.0241024 0.0158465,-0.0468701 0.0267835,-0.0687441zm-0.00602756 0.197528m0.331441 -0.213819c0.0026811,-0.00133858 0.00513386,-0.00200787 0.00736614,-0.00200787 0.00245669,0 0.00490945,0.000889764 0.00714173,0.00267717 0.00290157,0.00267717 0.00156299,0.0185236 -0.00424016,0.0479882 -0.00602362,0.0294606 -0.0207559,0.0680709 -0.0441929,0.116059 -0.0234331,0.0479882 -0.058252,0.081689 -0.104008,0.101331 -0.0214252,0.00758661 -0.0419606,0.0111575 -0.0620472,0.0111575 -0.0243268,0 -0.0524488,-0.00758661 -0.0843661,-0.0232126 -0.0319173,-0.0153976 -0.0562441,-0.0464213 -0.0732087,-0.0930709 -0.00647244,-0.0236575 -0.0098189,-0.0466457 -0.0098189,-0.0694134 0,-0.0305748 0.00557874,-0.0604843 0.0169606,-0.0901693 0.00825984,-0.021874 0.0207598,-0.0453071 0.0377205,-0.070752 0.0167402,-0.0252205 0.0357126,-0.0432992 0.0571378,-0.0542362 0.0169646,-0.00602756 0.0321417,-0.00914961 0.0457559,-0.00914961 0.0265591,0 0.045752,0.0127205 0.0575827,0.0379409 0.00914961,0.0196417 0.0136142,0.040622 0.0136142,0.0627165 0,0.0209803 -0.00624803,0.0495512 -0.0189724,0.0857087 -0.0124961,0.0361575 -0.0444134,0.0611535 -0.0953031,0.0745472 0.000448819,0.000444882 0.000669291,0.000889764 0.000669291,0.00133858 0,0.000893701 0,0.00178346 0.000448819,0.00267717 0.0113819,0.0392835 0.0321378,0.0660669 0.0622717,0.0803504 0.00959449,0.00446457 0.0194173,0.00647244 0.0294606,0.00647244 0.020311,0 0.0412913,-0.00982283 0.0627165,-0.0292402 0.0397283,-0.0475394 0.0720906,-0.110701 0.097311,-0.189713zm-0.22163 -0.032811c-0.0205354,0.035937 -0.0321378,0.0745472 -0.0352638,0.115839 0.0287913,-0.00825984 0.0522283,-0.0252205 0.0705276,-0.0508898 0.00959843,-0.0153976 0.0160709,-0.0323622 0.0189724,-0.0511102 0.000893701,-0.00513386 0.00133858,-0.0102677 0.00133858,-0.0149528 0,-0.0131693 -0.00245276,-0.0258898 -0.00781102,-0.0379449 -0.00424016,-0.00223228 -0.00825984,-0.00334646 -0.0118307,-0.00334646 -0.00513386,0 -0.0104882,0.00290157 -0.0158465,0.00892913 -0.00557874,0.00580315 -0.010937,0.0145079 -0.0160709,0.0256654l-0.00401575 0.00781102z"/>
  <g style="clip-path:url(#id0)">
   <g id="_115957352">
    <path id="_1154177441" class="fil2" d="M3.30938 2.62357c-1.63035,-0.433063 -2.25289,-0.112091 -2.40005,-0.00901575 4.78016,1.99985 4.78545,-0.596402 4.17024,-0.199827 -0.601665,0.38785 -1.77019,0.208843 -1.77019,0.208843z"/>
    <path id="_183878808" class="fil3" d="M2.31143 1.5457c1.68393,-0.0997913 2.36437,0.313846 2.48806,0.444154 -5.08263,1.00807 -4.70515,-1.51239 -4.18122,-1.00126 0.512402,0.49987 1.69317,0.55711 1.69317,0.55711z"/>
   </g>
  </g>
  <g style="clip-path:url(#id1)">
   <g id="_115957352">
    <path id="_115417744" class="fil2" d="M3.30938 2.62357c-1.63035,-0.433063 -2.25289,-0.112091 -2.40005,-0.00901575 4.78016,1.99985 4.78545,-0.596402 4.17024,-0.199827 -0.601665,0.38785 -1.77019,0.208843 -1.77019,0.208843z"/>
    <path id="_183878808" class="fil3" d="M2.31143 1.5457c1.68393,-0.0997913 2.36437,0.313846 2.48806,0.444154 -5.08263,1.00807 -4.70515,-1.51239 -4.18122,-1.00126 0.512402,0.49987 1.69317,0.55711 1.69317,0.55711z"/>
   </g>
  </g>
  <g style="clip-path:url(#id2)">
   <g id="_115957352">
    <path id="_115417744" class="fil2" d="M3.30938 2.62357c-1.63035,-0.433063 -2.25289,-0.112091 -2.40005,-0.00901575 4.78016,1.99985 4.78545,-0.596402 4.17024,-0.199827 -0.601665,0.38785 -1.77019,0.208843 -1.77019,0.208843z"/>
    <path id="_183878808" class="fil3" d="M2.31143 1.5457c1.68393,-0.0997913 2.36437,0.313846 2.48806,0.444154 -5.08263,1.00807 -4.70515,-1.51239 -4.18122,-1.00126 0.512402,0.49987 1.69317,0.55711 1.69317,0.55711z"/>
   </g>
  </g>
  <g style="clip-path:url(#id3)">
   <g id="_115957352">
    <path id="_115417744" class="fil2" d="M3.30938 2.62357c-1.63035,-0.433063 -2.25289,-0.112091 -2.40005,-0.00901575 4.78016,1.99985 4.78545,-0.596402 4.17024,-0.199827 -0.601665,0.38785 -1.77019,0.208843 -1.77019,0.208843z"/>
    <path id="_183878808" class="fil3" d="M2.31143 1.5457c1.68393,-0.0997913 2.36437,0.313846 2.48806,0.444154 -5.08263,1.00807 -4.70515,-1.51239 -4.18122,-1.00126 0.512402,0.49987 1.69317,0.55711 1.69317,0.55711z"/>
   </g>
  </g>
  <g style="clip-path:url(#id4)">
   <g id="_115957352">
    <path id="_115417744" class="fil2" d="M3.30938 2.62357c-1.63035,-0.433063 -2.25289,-0.112091 -2.40005,-0.00901575 4.78016,1.99985 4.78545,-0.596402 4.17024,-0.199827 -0.601665,0.38785 -1.77019,0.208843 -1.77019,0.208843z"/>
    <path id="_183878808" class="fil3" d="M2.31143 1.5457c1.68393,-0.0997913 2.36437,0.313846 2.48806,0.444154 -5.08263,1.00807 -4.70515,-1.51239 -4.18122,-1.00126 0.512402,0.49987 1.69317,0.55711 1.69317,0.55711z"/>
   </g>
  </g>
  <g style="clip-path:url(#id5)">
   <g id="_115957352">
    <path id="_115417744" class="fil2" d="M3.30938 2.62357c-1.63035,-0.433063 -2.25289,-0.112091 -2.40005,-0.00901575 4.78016,1.99985 4.78545,-0.596402 4.17024,-0.199827 -0.601665,0.38785 -1.77019,0.208843 -1.77019,0.208843z"/>
    <path id="_183878808" class="fil3" d="M2.31143 1.5457c1.68393,-0.0997913 2.36437,0.313846 2.48806,0.444154 -5.08263,1.00807 -4.70515,-1.51239 -4.18122,-1.00126 0.512402,0.49987 1.69317,0.55711 1.69317,0.55711z"/>
   </g>
  </g>
  <g style="clip-path:url(#id6)">
   <g id="_115957352">
    <path id="_115417744" class="fil2" d="M3.30938 2.62357c-1.63035,-0.433063 -2.25289,-0.112091 -2.40005,-0.00901575 4.78016,1.99985 4.78545,-0.596402 4.17024,-0.199827 -0.601665,0.38785 -1.77019,0.208843 -1.77019,0.208843z"/>
    <path id="_183878808" class="fil3" d="M2.31143 1.5457c1.68393,-0.0997913 2.36437,0.313846 2.48806,0.444154 -5.08263,1.00807 -4.70515,-1.51239 -4.18122,-1.00126 0.512402,0.49987 1.69317,0.55711 1.69317,0.55711z"/>
   </g>
  </g>
  <g style="clip-path:url(#id7)">
   <g id="_115957352">
    <path id="_115417744" class="fil2" d="M3.30938 2.62357c-1.63035,-0.433063 -2.25289,-0.112091 -2.40005,-0.00901575 4.78016,1.99985 4.78545,-0.596402 4.17024,-0.199827 -0.601665,0.38785 -1.77019,0.208843 -1.77019,0.208843z"/>
    <path id="_183878808" class="fil3" d="M2.31143 1.5457c1.68393,-0.0997913 2.36437,0.313846 2.48806,0.444154 -5.08263,1.00807 -4.70515,-1.51239 -4.18122,-1.00126 0.512402,0.49987 1.69317,0.55711 1.69317,0.55711z"/>
   </g>
  </g>
  <g style="clip-path:url(#id8)">
   <g id="_115957352">
    <path id="_115417744" class="fil2" d="M3.30938 2.62357c-1.63035,-0.433063 -2.25289,-0.112091 -2.40005,-0.00901575 4.78016,1.99985 4.78545,-0.596402 4.17024,-0.199827 -0.601665,0.38785 -1.77019,0.208843 -1.77019,0.208843z"/>
    <path id="_183878808" class="fil3" d="M2.31143 1.5457c1.68393,-0.0997913 2.36437,0.313846 2.48806,0.444154 -5.08263,1.00807 -4.70515,-1.51239 -4.18122,-1.00126 0.512402,0.49987 1.69317,0.55711 1.69317,0.55711z"/>
   </g>
  </g>
  <g style="clip-path:url(#id9)">
   <g id="_115957352">
    <path id="_115417744" class="fil2" d="M3.30938 2.62357c-1.63035,-0.433063 -2.25289,-0.112091 -2.40005,-0.00901575 4.78016,1.99985 4.78545,-0.596402 4.17024,-0.199827 -0.601665,0.38785 -1.77019,0.208843 -1.77019,0.208843z"/>
    <path id="_183878808" class="fil3" d="M2.31143 1.5457c1.68393,-0.0997913 2.36437,0.313846 2.48806,0.444154 -5.08263,1.00807 -4.70515,-1.51239 -4.18122,-1.00126 0.512402,0.49987 1.69317,0.55711 1.69317,0.55711z"/>
   </g>
  </g>
  <g style="clip-path:url(#id10)">
   <g id="_115957352">
    <path id="_115417744" class="fil2" d="M3.30938 2.62357c-1.63035,-0.433063 -2.25289,-0.112091 -2.40005,-0.00901575 4.78016,1.99985 4.78545,-0.596402 4.17024,-0.199827 -0.601665,0.38785 -1.77019,0.208843 -1.77019,0.208843z"/>
    <path id="_183878808" class="fil3" d="M2.31143 1.5457c1.68393,-0.0997913 2.36437,0.313846 2.48806,0.444154 -5.08263,1.00807 -4.70515,-1.51239 -4.18122,-1.00126 0.512402,0.49987 1.69317,0.55711 1.69317,0.55711z"/>
   </g>
  </g>
  <g style="clip-path:url(#id11)">
   <g id="_115957352">
    <path id="_115417744" class="fil2" d="M3.30938 2.62357c-1.63035,-0.433063 -2.25289,-0.112091 -2.40005,-0.00901575 4.78016,1.99985 4.78545,-0.596402 4.17024,-0.199827 -0.601665,0.38785 -1.77019,0.208843 -1.77019,0.208843z"/>
    <path id="_183878808" class="fil3" d="M2.31143 1.5457c1.68393,-0.0997913 2.36437,0.313846 2.48806,0.444154 -5.08263,1.00807 -4.70515,-1.51239 -4.18122,-1.00126 0.512402,0.49987 1.69317,0.55711 1.69317,0.55711z"/>
   </g>
  </g>
 </g>
</svg>
